<svg xmlns="http://www.w3.org/2000/svg" xmlns:xlink="http://www.w3.org/1999/xlink" viewBox="34 32 356.82 148.21">
    <defs><style>.cls-1{fill:none;}.cls-2{clip-path:url(#clip-path);}.cls-3,.cls-4,.cls-5,.cls-6,.cls-7{fill:#fff;}.cls-4{opacity:0.3;}.cls-5{opacity:0.55;}.cls-6{opacity:0.5;}.cls-7{opacity:0.4;}.cls-8{fill:#33bef2;}</style><clipPath id="clip-path"><circle class="cls-1" cx="355.63" cy="88.32" r="33.23"></circle></clipPath></defs><g class="cls-2"><path class="cls-3" d="M362.54,96.5a23.52,23.52,0,0,0-3.83,10.31c-.71,6.09.5,4.26-.65,7,0,0-.41.69-.26.73s.76-.26,3-1.43,4.38-.83,9.11-4.74,5.69-11.7,5.79-12.35a4.11,4.11,0,0,0-1.05,1.65,5.55,5.55,0,0,1-1.26,2c-.15.13-5.29,5-5.9,5.44a45,45,0,0,0-4.28,4.52c-.65.91-2.57,2.57-2.92,2.43a2.52,2.52,0,0,1,.2-.69,13.62,13.62,0,0,0,3-8.18c.05-1.21-.86-5.69-.91-6.65"></path><path class="cls-3" d="M366.77,102.37a1.28,1.28,0,0,1,0-1.08,6.32,6.32,0,0,0-.61-4.05c-.9-1.69-2.87-6.39-2.72-9.52s.56-3.57.56-3.57,1,2.57,1.31,3,3.32,5,3.07,7.57-.4,3.31-.25,3.35.5-.31.55-.61a23.34,23.34,0,0,1,1.51-4.09c1-2,4.84-6.56,5.7-9.56a13.56,13.56,0,0,1-2.12,10.08c-3.38,4.87-3.73,3.79-5.14,6s-1.61,2.48-1.81,2.48"></path><path class="cls-3" d="M369.84,88.59c-.25,0-.1-2-.7-2.7s-5.8-6-6.9-11.26c0,0,3.27,2.87,3.82,3.17a10.85,10.85,0,0,1,3.43,3.87c.65,1.66.5,3,.75,3.09s.26-1.82.26-1.82a41.73,41.73,0,0,1,.4-5.4c.35-1.74,1.26-4.65.86-6.13a11.52,11.52,0,0,1,1.86,6.53,15.73,15.73,0,0,1-2.22,7.3,12.3,12.3,0,0,0-.95,2.7c0,.39-.61.65-.61.65"></path><path class="cls-3" d="M363.7,61.37s6.8,3.48,5.74,15.13c0,0,0,.52-.4,0a12.8,12.8,0,0,0-2.52-2.52c-.66-.35-6.7-3.53-9.27-8.4a1.39,1.39,0,0,1,1,.39A18.7,18.7,0,0,0,361,67.37a10.25,10.25,0,0,1,4,2.09,11.15,11.15,0,0,1,2.56,3.43s.46.31.16-.56a7.28,7.28,0,0,0-1.16-2.53A9.74,9.74,0,0,1,365,65.41c-.11-1.35-.56-3.35-1.26-4"></path><path class="cls-3" d="M362.54,65.46a2.87,2.87,0,0,0-.51-1.87c-.65-1.09-.14-2.3-2.21-5.18-1.16-1.61-5.19-2.87-5.19-2.87s1.16,1.39,1.91,2.18a7.76,7.76,0,0,1,1.26,1.74c.26.39,1.65,1.55,2.17,2.21a1.54,1.54,0,0,1,.3.7c0,.22-.55-.13-.7-.26a14,14,0,0,0-4.18-2,45.44,45.44,0,0,1-5.34-.87,21.18,21.18,0,0,0,7.35,3.56c3.83.83,5.14,2.66,5.14,2.66"></path><path class="cls-3" d="M358.71,116.33c-2,.52-2.77.83-3.68,1.13s-3.17,1.31-3.67,1.57-2.12.78-2.12.78-1.46.22-1.51,0,.81-.69.81-.69c2.21-1.18,2.31-1.61,4.23-3.57s2.46-5.35,2.52-6a22.8,22.8,0,0,1,.65-2.56,24.62,24.62,0,0,0-6.45,7c-.54.83-.94,1.57-1.3,2.22-.91,2.4-2.12,4.37-3.86,4.36h0l-.36.29a8.45,8.45,0,0,0,2.12-.18,10.43,10.43,0,0,1,2.57.22c1.71.26,5,.48,5,.48,8.31.13,14.31-6.7,15.37-7.79a12.18,12.18,0,0,0,1.91-3.43c-2.87,4-10.17,5.61-12.19,6.13"></path></g><path class="cls-4" d="M386.56,76.2c-.16-.21-.36-.47-.7-.29s-.44,0-.59-.28c-.25-.42-.51-.94-1.1-.33a.25.25,0,0,1-.38,0c-.33-.35-.67-.69-.55-1.27-.27.12-.19.32-.25.47a1.44,1.44,0,0,1-1.81.61c-.27-.18-.54-.47-.72,0s-.42.76.21,1.06c.35.16.94.48.72,1a4.72,4.72,0,0,0-.45,1.9c0,.14-.06.27-.21.21-.35-.14-.55.18-.83.23-.67.14-.72.5-.42,1,.12.22.11.52-.18.47-.7-.12-.74.48-1,.82-.51.59-.1,1.29-.27,1.91-.09.34-.24.82.12,1s.5-.35.7-.6c.49-.59,1-1.16,2-.79-.43.5-.82,1-1.22,1.42s-.75.67-.21,1.23c.25.25.09.7-.13.91s-.38-.14-.55-.28c-.36-.31-.51-.08-.58.24a1.43,1.43,0,0,0,.06.49c.1.91-.22,1.17-1.1,1-.47-.09-.37-.53-.53-.81-1.55,1.28-2.67,1.28-4,0-.33-.31-.43,0-.53.15a1.41,1.41,0,0,1-1.45.69,1.56,1.56,0,0,0-.57,0c-.65.17-.72-.23-.74-.71,0-.75.16-1,.76-.94s.63-.1.66-.56c.05-.94.11-1,1-.94.55,0,.6-.19.58-.61a1,1,0,0,0-.43-.69c-.32-.31-.71-.67-.3-1.19.06-.08.11-.16.05-.25a.25.25,0,0,0-.32-.08c-.09,0-.16.12-.24.14-.52.09-.46.07-.29.52a1.19,1.19,0,0,1,0,1.22c-.26.38-.53.31-.86.24s-.69.06-.71.41c-.06.77-.64,1-1.14,1.39a1.49,1.49,0,0,1-.32-1c0-.4-.35-.41-.45-.62s-.05-.24-.23-.24a.41.41,0,0,0-.39.26,1.84,1.84,0,0,0,.68,2.1c.44.21.43.58.41,1s-.35.53-.7.54a1.7,1.7,0,0,1-1.68-.7A3,3,0,0,1,365,85c.15-.37.17-.57-.08-.77-.48-.39-.47-.71,0-1.07.3-.23.45-.52,0-.8a.36.36,0,0,1-.06-.61c.28-.31.47-.73.86-.94.23-.13.4-.33.12-.44s-.24-.92-.78-.37c-.12.12-.22.17-.37.1a.43.43,0,0,1-.25-.4.28.28,0,0,1,.28-.27c.61,0,.45-.28.3-.63a.72.72,0,0,1,0-.48c.34-1.13.73-2.24,1.07-3.37.14-.44.32-.85.5-1.27.07-.16-.48-.41,0-.59.23-.09.43-.33.84-.09-.25-.46-.5-.77-.46-1.17a1,1,0,0,0-.43-1.06c-.35-.15-.51.41-.83.55-.16.07-.17.52-.45.25a3.18,3.18,0,0,0-.68-.37l-.15.06a.54.54,0,0,0-.23.68.48.48,0,0,0,.62.21c.2-.06.49-.11.53.16a.77.77,0,0,1-.24.57c-.19.2-.32-.06-.47-.15s-.07-.09-.11-.09a5.16,5.16,0,0,1-1.83-.51c-.32-.15-.73.05-1.06-.36-.18-.23-.58-.1-.72.29-.05.16-.13.33-.32.33s-.32-.17-.37-.37c0,0,0-.11,0-.14-.26-.21-.16-.77-.5-.76s-.18.51-.31.78-.38.51-.76.39a1.14,1.14,0,0,0,0,.19c.1.24.68.4.22.72s-.51-.21-.7-.43-.26-.6-.46-.88c-.36-.49-.9-.28-1.34-.45a4.17,4.17,0,0,1-1.58-1.08c-.44-.46-.72-.76-.44-1.41.1-.24,0-.63-.51-.54s-.64-.45-1.06-.18c0,0-.16-.09-.2-.17s0-.21.12-.29.35,0,.38-.24-.25-.11-.38-.07-.27-.09-.3-.23.16-.17.28-.17a.42.42,0,0,0,.39-.26c0-.07.09-.13.13-.19h0l0,0c-.28-.46-.51-.51-.67,0s-.5,0-.71.25a3,3,0,0,1,.22,1.64l-.46-.36c-.18-.13-.32-.48-.56-.32a.62.62,0,0,0-.1.78c0,.09.07.18.09.27.22,1,.16,1.09-.95,1.1.06-.46,0-.44-.3-1-.22-.41-.42-.67-.92-.49a.29.29,0,0,1-.26-.06c-.47-.87-.64-.22-.94.15a.73.73,0,0,0-.15.9.59.59,0,0,1,0,.6c-.31.58-.59,1.18-.91,1.76-.1.2-.18.35.1.44.56.18.65.71.87,1.14.06.13.12.28,0,.4s-.26,0-.39,0-.41-.39-.42.1-.23.62-.51.52-.73-.3-.62-.81c.07-.3.12-.6.18-.9-.43-.1-.79-.11-.88.48-.06.35-.25.57-.5.07a.48.48,0,0,0-.5-.33c-.3,0-.19.33-.27.51a8,8,0,0,1-.55,1.14.73.73,0,0,1-1.19.26c-.31-.21-.59-.58-1.05-.5s-.52-.11-.68-.38-.31-.53-.72-.45c-.68.13-1-.11-1.19-.83a1,1,0,0,0-.57-.82.92.92,0,0,1-.35-1.42.52.52,0,0,0,0-.71.56.56,0,0,0-.64-.28,1.61,1.61,0,0,1-1.32-.29c.21-.26.68-.06.68-.48s-.38-.44-.63-.59-.39-.15-.48-.29-.16-.7-.11-.67c.44.22.8-.38,1.13-.15a2.88,2.88,0,0,0,1.36.29c1,.15,1,.14.82-.83-.08-.56.41-2,.79-2.08.69-.12.7-.63.69-1.09s-.19-1-.54-1.1-1-.46-1.38.18c0,0-.2.06-.26,0-.55-.32-.82.11-1.14.41s-.54.74-1,.8c0,.11,0,.23-.14.28s-.08,0-.08-.07.1-.18.2-.22c0-.55-.31-.55-.7-.43s-.57.43-.31.68c.77.75-.2,1.16-.26,1.74v0c0,.17.06.38-.17.54-.2-.38-.46-.79-.78-.13s-.51.41-.85-.23c0,.58-.1.88-.54.88-.16,0-.35.17-.18.34.41.43-.13.64-.15.91s.36.68.21,1.11c-.09.23-.18.48-.44.52a.64.64,0,0,0-.56.63.5.5,0,0,1-.36.41,1.23,1.23,0,0,0-.79,1.41c.07.73-.49,1.19-.63,1.81,0,.14-.59.15-.9.23l-.66.19c.12.37.86.59.24,1-.25.17-.36.26-.36.58s-.43.5-.66.47c-.39,0-.15-.34-.07-.54a1.55,1.55,0,0,0,0-.21c.34-1.47.25-3.08,1.35-4.29.57-.64.55-1.61,1.34-2.12a.53.53,0,0,0,.09-.7,33.25,33.25,0,0,0-4.66,8.52,1.69,1.69,0,0,1,0,1.13,20.85,20.85,0,0,0-.88,6.57,10.85,10.85,0,0,0,.07,2.13c.29,1.89.75,3.75.87,5.66a10.27,10.27,0,0,0,2.13,6,12.73,12.73,0,0,1,1.92,3.71,7.59,7.59,0,0,0,1.54,2.62c.71.82,1.51,1.55,2.16,2.43a4.83,4.83,0,0,0,1.93,1.73,1.15,1.15,0,0,1,.58.61,2.58,2.58,0,0,0,.78.92.67.67,0,0,1,.87.39c.07.15.18.4.27.4.7,0,1,.72,1.51,1a.66.66,0,0,0-.2-.34,1.46,1.46,0,0,1-.51-1.32,5.09,5.09,0,0,1,0-1.17,0,0,0,0,1,0,0,1.75,1.75,0,0,1-.38-.79,1,1,0,0,0-.22-.14c-.59-.29-1-.74-1.56-1-.33-.19-.62-.37-.47-.74a.17.17,0,0,0-.14-.21c-.14,0-.18.06-.23.14s-.11.15-.28.08-.06-.35-.08-.53a.33.33,0,0,0-.33-.33c-.66,0-.7-.37-.68-.74s-.06-.46-.49-.3a.66.66,0,0,1-.79-.17.94.94,0,0,0-1-.41c-.28,0-.56-.15-.41-.32.44-.5-.2-1.18.5-1.62.16-.1,0-.25-.16-.34-.41-.27-.36-.6-.1-.91.51-.59.47-.71-.3-1-.34-.15-.6-.35-.09-.6.23-.11.21-.26.18-.42a.87.87,0,0,0-.74-.14c-.31.06-.61-.21-.45-.45.49-.69-.22-1.64.56-2.25.17-.13,0-.34-.18-.47a.86.86,0,0,1-.11-1.26c.56-.83.52-1-.33-1.44-.38-.2-.66-.48-.11-.82.3-.18.22-.44.19-.69-.08-.58.18-.85.75-.86s.85-.07,1.28-.11c.13,0,.42.1.3-.19s.32-.73-.11-.88-.48-.18-.41-.5.44-.32.71-.29.75.07,1-.33.5-.17.75,0a3.35,3.35,0,0,0,2.67.11,10,10,0,0,1-2-.22c-.29-.1-.66-.11-.46-.6s.31-.56.74-.36a1.81,1.81,0,0,0,1.39,0l1,0a1,1,0,0,1,0-.1,1.9,1.9,0,0,1,.64-.71,1.48,1.48,0,0,1,.31-.15.94.94,0,0,1,.49-.56,1.37,1.37,0,0,1-.16-.91,1.14,1.14,0,0,1,.75-.91,2.24,2.24,0,0,1,.28-.85,1.55,1.55,0,0,1,.23-.27.29.29,0,0,1-.15-.3c.13-1.06-.32-1.48-1.37-1.37-.18,0-.4-.15-.56-.28s-.33-.61,0-.77c.68-.34.58-.88.61-1.47,0-.42-.09-1.24.75-1.09a3.22,3.22,0,0,0,1.21-.11c.59-.11.63.46.79.74s-.23.28-.44.32l-.1.16-.07-.07.15-.1c0-.19,0-.58-.25-.43s-.33.62-.13,1,.22.68.63.37.39-.32.71,0,.79,0,1.19-.07c-.14-.35.27-.86-.42-1.07s-.65-.67-.28-1.16a1.36,1.36,0,0,1,.06.29c0,.53.33.43.66.43.56,0,.2-.32.19-.52a.73.73,0,0,1,1-.72c.51.14,1.19-.14,1.37.68,0,0,.23,0,.34,0s.43-.07.62.11c0,.09-.07.17-.11.26s-.18.45,0,.59c.35.24.18-.28.29-.25s.52-.17.75,0c.6.47.55.06.51-.36,0-.17-.17-.36.06-.5.7.81.84.93,1.3.67s.58,0,.72.37a.79.79,0,0,1-.33.93c-.46.33-.41.6-.15,1s.07.57-.36.58a1.86,1.86,0,0,1-1.68-.75c-.22.38-.51.71.23.77.49,0,.69.33.34.79a1.39,1.39,0,0,0-.15,1.31c.18,0,.2-.13.2-.22,0-.54.26-1,.76-.9s.18.58.24.9,0,.61.4.64l.57,0a2,2,0,0,1,.54-.07.44.44,0,0,0,.15-.05c.33-.16.17-.55.22-.85a.68.68,0,0,1,.73-.63c.38,0,.23.41.24.63,0,.51,0,1,.72,1a.88.88,0,0,1,.29,0,2.76,2.76,0,0,1,.51,0c-.33-.49,0-1-.19-1.51-.09-.29,0-.62-.16-.9-.06-.11-.09-.28,0-.32.59-.2.82-.85,1.41-1.05s.81-.35.77-1,.67-1.16,1.28-1.17a.36.36,0,0,0,.21,0c.21-.16.4-.56.69-.34a2.49,2.49,0,0,1,.78,1c.17.49-.35.61-.66.62-.53,0-.46.19-.39.6a2.5,2.5,0,0,0,1.15,1.68,5.68,5.68,0,0,1,.69.61c.51.51.51.72-.08,1.11s-.63,1.28-1.09,1.92a2.47,2.47,0,0,0-.19-.36,3.26,3.26,0,0,0,.05.41c0-.17.2.29.25.38a1.32,1.32,0,0,1,.11.68,1.08,1.08,0,0,1-.05.36.64.64,0,0,1,0,.07l.07.14a1.35,1.35,0,0,1-.17,1.2c0,1,.27,1.17,1.4,1.13a5.44,5.44,0,0,1,2.57,0c.42.19.67.39.57.82A4.9,4.9,0,0,1,361.5,91c.76-.42,1.05.17,1.34.52a1.13,1.13,0,0,1,0,1.2c-.11.21-.57.14-.63.52,0,0-.16-.08-.17-.18a1.45,1.45,0,0,1,0-.36c.05-.28-.08-.42-.34-.42s-.25.29-.24.48.21.48.31.71.45.7.22,1.14c-.11.21-.38.49,0,.63a.49.49,0,0,0,.68-.43c0-.13,0-.3.17-.35a2.41,2.41,0,0,0,2,.66c.15,0,.36-.11.28-.33s-.22-.51.29-.49c.22,0,.45-.42.74-.17.63.55,1.14.14,1.66-.18.31-.2.49-.57.88-.7a.44.44,0,0,1,0,.56c-.3.36-.65.69-.49,1.24,0,0-.06.13-.11.18-.54.55-1.11,1.08-.74,2a.21.21,0,0,1-.21.29.21.21,0,0,1-.21-.24c0-.59-.34-.65-.77-.66.19.43,0,.93.15,1.33a1.92,1.92,0,0,0,1.26,1.22c.16,0,.47.14.27.36-.36.41-.18,1,0,1,.56.09.48.51.65.81.06.1.26,0,.39,0,.77-.09,1.18-.7,1.66-1.18.18-.17.32-.37.58-.32s.39.33.41.59a6.41,6.41,0,0,1,0,1.07,1.18,1.18,0,0,0,.49,1.12c.36.28.58-.13.87-.23s.51-.66.78-.51c.88.5,1.44-.31,1.68-.67a4,4,0,0,1,2.51-1.64c.29-.08.57-.24.55-.57,0-.66.61-1.12.51-1.8a.33.33,0,0,1,.18-.28c.75-.16.71-1,1.19-1.4a6.49,6.49,0,0,0,1.05-1.61c.17.14.21.4.53.32-.16-.26,0-.46.11-.7s.33-.81-.42-.6c-.2.06-.5,0-.58-.18s.29-.39.36-.64.43-.28.46-.22c.22.59.64,0,.9.18.85.43.82-.22.89-.71,0-.22.29-.55-.12-.63-.2,0-.32,0-.28-.25s0-.42.27-.39.42,0,.37-.29c-.11-.52.27-1,.18-1.47,0-.16,0-.42.17-.43.57,0,.64-.68,1.11-.85s.88-.42.43-1c0,0,.05-.17.08-.26a.67.67,0,0,0-.18-.78c-.4-.31-.25-.59,0-.82a2,2,0,0,0,.7-1c.13-.45.25-.73.79-.59a.38.38,0,0,0,.45-.27c.05-.14.09-.31-.07-.39-.71-.35-.41-1-.38-1.5,0-.2,0-.51.24-.53s.44.29.44.54a2.82,2.82,0,0,0,.31,1.07A32.45,32.45,0,0,0,386.56,76.2Zm-50,9.37c.17-.3.33-.22.47-.07Zm50.66-6.28a.84.84,0,0,0-1.08.26c-.12.12-.27.36-.46.14s0-.38.07-.54a1.5,1.5,0,0,1,1.57-.3.42.42,0,0,1,.23.33C387.49,79.38,387.36,79.37,387.22,79.29Z"></path><path class="cls-5" d="M381.11,104.33c.13-.35.43-1.1-.11-1.21a.24.24,0,0,1-.18-.3v-.06a2,2,0,0,0-.75.47.25.25,0,0,1-.36,0l-.15-.09-.17.25a.52.52,0,0,1-.55.2c-.5-.14-.34-.94-.86-.92a.26.26,0,0,1-.25-.32l.07-.18h-.22c-.19,0-.37.12-.55.16a.85.85,0,0,1-.59,0l-.17-.1a1,1,0,0,1-.73.59l-.17.2c.09.49-.49.82-.45,1.3,0,.24-.24.35-.51.41a3.77,3.77,0,0,0-2.26,1.18,1.24,1.24,0,0,1-1.53.48c-.24-.11-.4.29-.7.37s-.46.36-.79.16a.79.79,0,0,1-.44-.8,2.85,2.85,0,0,0,0-.77.4.4,0,0,0-.37-.43c-.23,0-.36.11-.52.24a2.72,2.72,0,0,1-1.5.84c-.12,0-.3.11-.36,0s-.08-.51-.58-.58c-.18,0-.34-.46,0-.75s-.1-.23-.25-.26a1.58,1.58,0,0,1-1.13-.89c-.13-.28,0-.64-.14-1,.38,0,.74,0,.7.47,0,.1.06.17.18.17s.25-.11.2-.21c-.34-.64.17-1,.67-1.42l.09-.13c-.14-.39.17-.63.45-.89a.27.27,0,0,0,0-.41c-.35.1-.51.37-.79.51-.47.23-.93.53-1.51.13-.26-.18-.47.12-.66.12-.47,0-.38.13-.27.36s-.11.2-.25.24a2.56,2.56,0,0,1-1.8-.48c-.18,0-.12.16-.15.25a.46.46,0,0,1-.62.31c-.37-.1-.12-.3,0-.45.2-.32-.08-.56-.21-.82s-.26-.32-.27-.51-.09-.35.22-.35.35.1.3.3V100l.15.13c.06-.27.48-.22.57-.37a.69.69,0,0,0,0-.87c-.26-.25-.52-.68-1.22-.37a2.87,2.87,0,0,0,.48-1.28c.1-.31-.13-.46-.51-.59a6.29,6.29,0,0,0-2.33,0c-1.06,0-1.26-.06-1.27-.89,0-.54,0-.65-.44-.62a1.35,1.35,0,0,0,.16-.64c0-.2-.2-.37-.24-.57-.11-.51.59-1.1.34-1.51l.09.11c.12-.28-.09-.54-.38-.75.53-.28.54-.44.06-.82a5.13,5.13,0,0,0-.65-.47,1.89,1.89,0,0,1-1.09-1.25c-.06-.32-.13-.45.38-.46.28,0,.78-.09.61-.46a1.9,1.9,0,0,0-.74-.78c-.26-.17-.45.13-.65.25l-.19,0c-.58,0-1.25.42-1.21.88s-.31.63-.73.75-.78.64-1.33.79c-.12,0-.09.16,0,.24s.07.46.15.68a1.35,1.35,0,0,1,0,.6.53.53,0,0,0-.45.43c0,.21.1.5-.2.62a2.57,2.57,0,0,1-1.14,0c-.37,0-.31-.26-.36-.46s.2-.61-.22-.65a.59.59,0,0,0-.69.66c0,.06,0,.13-.17.15a.82.82,0,0,1,.12-.94c.32-.33.14-.54-.3-.57-.67,0-.4-.28-.2-.55A1.84,1.84,0,0,0,348,91c.39,0,.54-.14.32-.41s-.27-.49.14-.73c.22-.13.45-.36.3-.67s-.16-.49-.65-.27-.54.1-1.18-.48c-.21.1-.07.24-.05.36,0,.31.08.6-.46.26-.21-.13-.45,0-.68,0s.06.36-.26.18-.09-.28,0-.42l.1-.18c-.18-.14-.38-.07-.56-.09s-.3,0-.31,0c-.16-.58-.78-.39-1.24-.48s-.9.14-.87.51c0,.15.34.37-.17.38-.3,0-.62.07-.6-.31l-.05-.21c-.34.35-.27.7.25.83s.25.52.38.77c-.36.08-.79.29-1.08,0s-.38-.17-.64,0-.44-.08-.57-.27-.19-.58.12-.73.2.18.23.32h0c.19,0,.57,0,.4-.24s-.18-.61-.72-.53a3.55,3.55,0,0,1-1.09.08c-.76-.11-.66.48-.68.78s.07.82-.55,1.06c-.28.12-.26.39,0,.56a1.05,1.05,0,0,0,.51.2c.65-.06,1,.08,1.18.41h-.22a2.2,2.2,0,0,0-.73.27l-.23.1a.71.71,0,0,1-.28-.13v.09a.25.25,0,0,1-.2.29.44.44,0,0,1-.5-.14c-.06-.12,0-.35-.15-.44h-.11l-.23,0-.58,0c-.12,0-.25,0-.37,0h0l-.13.08v.07l0,.2a.94.94,0,0,1-.41.26h0a1.43,1.43,0,0,0-.35.17l-.23,0c-.07-.14-.19-.27-.28-.41a1,1,0,0,1-.64.13,2.16,2.16,0,0,0-.8,0c-.42.1-.42.45-.68.69a.69.69,0,0,1-.55.14l-.34-.07c-.12,0-.12,0-.2.07l-.06.07h0l.11.11c.12.14.08.34.11.49a.9.9,0,0,0,.13.39h0a4.58,4.58,0,0,0,.35.42l-.05.14a2.78,2.78,0,0,0,.38.12,3.09,3.09,0,0,0,.6.08l-.19.13a2.34,2.34,0,0,0-.27-.15,2,2,0,0,0-.59-.15c-.19.07-.21.19-.27.34a.48.48,0,0,1-.34.29.67.67,0,0,1-.44-.07l-.17,0-.15.13a2.36,2.36,0,0,0,.28.12l.1.14c-.05.15.16.22.29.3a.44.44,0,0,1,.24.42c0,.14-.28.14-.27,0s-.16-.26-.32-.36a.4.4,0,0,1-.22-.33l-.18-.08a1.09,1.09,0,0,0,.78.93,2.67,2.67,0,0,0,1.87,0l.34,0a.65.65,0,0,0,.47-.28,2.3,2.3,0,0,0,.47.1h.2c0,.15.26.17.46.22a10.52,10.52,0,0,0,1.78.16,3.69,3.69,0,0,1-2.41-.08c-.23-.09-.49-.22-.68,0s-.55.28-.91.24-.55-.07-.63.21.08.28.36.36,0,.41.1.63-.15.13-.27.14c-.39,0-.77.07-1.16.08s-.75.2-.68.61c0,0,0,.06,0,.08s0,.31-.18.42c-.51.25-.25.45.09.6.77.32.81.44.3,1-.26.31-.31.64.1.91.14.09.32.24.16.34-.7.44-.06,1.12-.5,1.62-.15.17.13.36.41.32a.94.94,0,0,1,1,.41.66.66,0,0,0,.79.17c.43-.16.52,0,.49.3s0,.74.68.74a.33.33,0,0,1,.33.33c0,.18,0,.38.08.53s.23,0,.28-.08.09-.17.23-.14a.17.17,0,0,1,.14.21c-.15.37.14.55.47.74.56.3,1,.75,1.56,1a1,1,0,0,1,.22.14.81.81,0,0,1,.38.79,0,0,0,0,0,0,0,5.09,5.09,0,0,0,0,1.17,1.46,1.46,0,0,0,.51,1.32.66.66,0,0,1,.2.34.87.87,0,0,0,.33.5,12.77,12.77,0,0,1,1.07,1c.29.23.05.39-.09.52s-.37.07-.46-.12-.11-.22-.24-.22c-.72,0-.92-.77-1.67-.78-.08,0-.18-.17-.24-.28a.65.65,0,0,0-.79-.28c.76.6,1.54,1.19,2.27,1.82.3.26.45.72,1.07.35l.23.05a13.24,13.24,0,0,0,2.57,1.15,13.45,13.45,0,0,0,4,1.3,3.76,3.76,0,0,1,1.4.36c.3,0,.73-.21.78.26a3.72,3.72,0,0,0,2.59,0,2.89,2.89,0,0,1,1.17-.07,16.31,16.31,0,0,0,5.17.13c1.07-.12,2.15-.33,3.21-.4a55.93,55.93,0,0,0,6-1c.59-.11,1.26-.26,1.49-.85.06-.15.27-.14.43-.19,1-.29,2-.56,3-.89.61-.21,1.15-.51,1.24-1.13.07-.45.49-.7.93-1,.89-.55,2.12-.73,2.72-1.6a4.22,4.22,0,0,1,.65-.61c.67-.58,1.4-1.12,2-1.74.41-.43.81-.87,1.19-1.32l0-.17a5.15,5.15,0,0,1,1-2.34Zm-44.68-3.22c-.12-.06-.23-.22-.37-.07s0,.28.18.32a.85.85,0,0,1,.64.76c0,.26-.11.34-.37.39a.35.35,0,0,1-.46-.26,2.24,2.24,0,0,0-.11-.34c-.1-.29-.28-.36-.51-.08a.38.38,0,0,1-.47.16c-.22-.09,0-.23,0-.36.1-.47-.28-.9-.89-1a.3.3,0,0,1-.26-.19c-.19-.43.37-1.49,1-1.73-.34-.17-.62-.32-.21-.66.18-.15.1-.5.13-.75s.07-.35.35-.37.18.17.25.29.34.47.51.7.3.15.48.06.46-.15.48.15c.32,0,.45-.07.46-.35s.05-.42.36-.41.3.25.39.41c.16.33-.22.59-.17.9s-.32.49.14.55.23-.32.33-.51c.86.69.87,1,.14,1.62a2.46,2.46,0,0,0-.41.45A1.16,1.16,0,0,1,336.43,101.11Zm2.83-4.47c-.5,0-1,.06-1.38-.35-.23,0-.41.19-.66.13v0a1,1,0,0,0,.57-.28,1.61,1.61,0,0,0,1.5-.18l.09-.1.25.07a2.64,2.64,0,0,0,0,.28A.38.38,0,0,1,339.26,96.64Zm1.23,18.06c-.41,0-.3-.33-.41-.5s.13-.22.31-.22a.78.78,0,0,1,.68.35C341,114.64,340.73,114.69,340.49,114.7Zm1.66-18.37c-.15.45-.73.25-1.11.29s-.27-.28-.33-.47l-.1-.24.12,0a3.64,3.64,0,0,0,.91-.44,2.24,2.24,0,0,0,1,.2,1.89,1.89,0,0,0,.32.55C342.45,96,342.27,96,342.15,96.33Zm21.06,6.57c-.12-.19,0-.33.13-.46s.2-.34-.09-.46c-.12-.06-.29-.11-.18-.27a.42.42,0,0,1,.38-.15.29.29,0,0,1,.29.24c.05.25.07.5.1.75C363.52,102.52,363.47,102.8,363.21,102.9Zm2,10.1c-.26-.24-.13-.44,0-.61h.27C365.57,112.62,365.41,112.8,365.23,113Z"></path><path class="cls-6" d="M353.24,66.58c0,.06-.09.12-.13.19a.42.42,0,0,1-.39.26c-.12,0-.33-.09-.28.17s.1.27.3.23.28-.1.38.07-.26.16-.38.24-.18.17-.12.29.18.19.2.17c.42-.27.71.25,1.06.18s.61.3.51.54c-.28.65,0,1,.44,1.41a4.17,4.17,0,0,0,1.58,1.08c.44.17,1,0,1.34.45.2.28.23.62.46.88s.37.64.7.43-.12-.48-.22-.72a1.14,1.14,0,0,1,0-.19c.38.12.6,0,.76-.39s-.09-.77.31-.78.24.55.5.76c0,0,0,.09,0,.14.05.2.14.37.37.37s.27-.17.32-.33c.14-.39.54-.52.72-.29.33.41.74.21,1.06.36a5.16,5.16,0,0,0,1.83.51s.07.06.11.09.28.35.47.15a.77.77,0,0,0,.24-.57c0-.27-.33-.22-.53-.16a.48.48,0,0,1-.62-.21.54.54,0,0,1,.23-.68l.15-.06a1,1,0,0,1-.22-.19l.35-.21h0l-.16-.09h0a.49.49,0,0,1-.19-.14h0s0,0,0-.08a4.31,4.31,0,0,1-.49-.11c-.71-.29-1.52-.15-2.24-.5.52-.17,1-.35,1.56-.47l.08,0a4.45,4.45,0,0,1,.72-.1h.06c.65,0,1.3.2,1.73-.52.06-.11.23-.08.33,0,.34.22.52.21.51-.27,0-.23.19-.23.37-.2a5.44,5.44,0,0,0,.7.15c.45,0,.56.16.28.57s-.39.66.29.54a.76.76,0,0,1,.35.07c.71.22,1.07,0,1.35-.7.22.2.4.41.62.58s.56.2.48-.18c-.18-.88.48-.89,1-1.09l-.28-.31c-.28-.29-.25-.59.07-.78s.44,0,.65.29A2.26,2.26,0,0,1,373,69.1a.68.68,0,0,0,.58.84c.46.11.59-.08.7-.53a1,1,0,0,1,1.15-.89c.27,0,.67.33.88-.14a.91.91,0,0,0-.46-.16c-.46,0-.46,0-.3-.44,0-.06.06-.18,0-.2-.33-.26-.61-.53-.43-1a5.15,5.15,0,0,0-.95-.08c-.28,0-.47,0-.56-.28s0-.38.13-.3c.45.22.73-.29,1.12-.2a1.53,1.53,0,0,0,.39-1.86c-.24-.81.16-1.14.94-1,.25.06.29,0,.32-.23a.22.22,0,0,0,0-.15l-.06,0a.24.24,0,0,0-.17,0c-.24.11-.36,0-.37-.23a.41.41,0,0,1,.07-.11c-.07-.09-.19-.17-.26-.27-.74-.57-1.51-1.1-2.3-1.61l-.4.26c-.35.23-.18-.46-.4-.65s-.12-.14-.2-.2l-.1-.07a33.07,33.07,0,0,0-16.73-4.53,33.94,33.94,0,0,0-7,.75,2.92,2.92,0,0,1-1.21,1c.21.16.75.11.34.64a.53.53,0,0,0,.13.66c.79.47.46.82-.07,1.18-.1.07-.21.16-.14.28a.31.31,0,0,0,.39.11,1.85,1.85,0,0,0,.37-.32c.15-.14.17-.23.45,0s.6.78,1.15.78c.14,0,.33-.09.36.09s-.18.37-.31.53-.24.17-.35,0c-.38-.57-.83-.1-1.22,0-.22,0-.32.27-.13.5l.5.61c.09.11.25.28.09.35-.73.33-.45,1-.64,1.58-.08.21.08.3.2.4a.49.49,0,0,0,.54.08c.27-.13,0-.26,0-.4a.37.37,0,0,1,.35-.55c1.06.06,1.22-1.3,2.2-1.33,0,0,.06-.1,0-.12-.53-.77.33-.72.6-.93s.68.11,1,.28.28.32.13.57.09.44.2.63a.19.19,0,0,0,.31,0c.81-.81.77-.13.78.45a1.12,1.12,0,0,0,.17.46c.26.63,0,2-.53,2.28a3.06,3.06,0,0,0-.58.38h0a2.42,2.42,0,0,0-.46.5h0m9.95-9.26c-.07.38-.31.37-.55.42s-.38-.14-.36-.37a.57.57,0,0,0-.23-.49c-.15-.15-.49-.28-.22-.55s.52-.25.69.16C362.74,56.74,363.29,56.72,363.19,57.32Zm6.36,11.88-.05,0s0-.05,0-.05l.05,0S369.56,69.2,369.55,69.2Zm2.62-4.88c-.39.08-.78.45-1.19.11s-.14-.64-.2-1c.49.09.9-.37,1.33,0S372.11,64,372.17,64.32Zm.82,1.6c-.14.12-.26,0-.37-.1s-.2-.19-.09-.35.26,0,.36,0S373.17,65.75,373,65.92Z"></path><circle class="cls-7" cx="355.72" cy="88.42" r="33.32"></circle><path class="cls-3" d="M192.69,83.4a19.47,19.47,0,0,1-13.25-23.18l12.61,1.62s4.84.21,4.66,8.78c-.17,8.32-4,12.78-4,12.78"></path><path class="cls-3" d="M204,83.4a19.42,19.42,0,0,0,13.25-23.18L204.6,61.84s-4.84.21-4.66,8.78c.17,8.32,4,12.78,4,12.78"></path><path class="cls-3" d="M198.33,50.91a2.94,2.94,0,0,1,2.94,2.94,3.24,3.24,0,0,1-1.92,2.77c-.13.07-.25.13-.23.33s.63.32.89.38l17,2a19.43,19.43,0,0,0-18.62-13.9h0a19.44,19.44,0,0,0-18.62,13.9l16.95-2c.26-.06.86-.18.89-.38s-.09-.26-.22-.33a3.22,3.22,0,0,1-1.92-2.77,2.94,2.94,0,0,1,2.94-2.94"></path><path class="cls-3" d="M206.07,97.15l1.15-.72s-5.45-7.38-17.64-7.38c-6.24,0-9.47,2.51-13.84,2.51a6,6,0,0,1-3.51-.86s2.08,3,9.6,3c5.53,0,9.47-3.23,13.34-3.23,5.31,0,9.25,4.73,10.9,6.67"></path><path class="cls-3" d="M189.15,97.15,188,96.43s5.45-7.38,17.64-7.38c6.24,0,9.46,2.51,13.84,2.51A6,6,0,0,0,223,90.7s-2.08,3-9.61,3c-5.52,0-9.46-3.23-13.33-3.23-5.31,0-9.25,4.73-10.9,6.67"></path><path class="cls-3" d="M183.34,88.4c-.22.58-2.55-.1-4.12.36a13,13,0,0,1-15.17-8s3.87,4.16,6.89,4.45a23,23,0,0,1,9.1,2.58l.65.14a.8.8,0,0,0-.36-.43c-.37-.2-3.27-1.13-4.66-5.74a37.16,37.16,0,0,1-.86-5.3,47.54,47.54,0,0,1,4.44,5.74c1.29,2.22,1.44,4.73,4.09,6.23"></path><path class="cls-3" d="M173.84,83.53c-.23.23-.83-.15-1-.25s-1.76-.82-4.41-1.76-7.49-5.06-7-12.12a9.8,9.8,0,0,0,2.69,4.41c2,1.76,2.73,2,3.95,3.41s4,4.69,4.08,4.66.15-.22-.07-.4-.93-2-1.4-2.58-1.86-4.8.18-10a16.19,16.19,0,0,1,2.05,7.56c-.15,3.8-.33,2.9.6,6.06,0,0,.51.86.4,1"></path><path class="cls-3" d="M167.74,74.31c-.12.13-.68-.68-1.11-1.43s-3.44-4-3.83-4.63a10.58,10.58,0,0,1-1.22-10.79s.25-.07.25,1.37a13.75,13.75,0,0,0,2.4,6,11.65,11.65,0,0,1,2.26,5.88s.14.43.32.47.18-.43.18-.43-.14-2.15-.14-3.62a8.68,8.68,0,0,1,2-5.42,6.84,6.84,0,0,0,1-1.57,2.57,2.57,0,0,1,.61-.86,21.8,21.8,0,0,1-1.11,7.95c-1.4,3.84-1.86,4.49-1.65,6.57Z"></path><path class="cls-3" d="M165.38,63c-.15,0-.25-.5-.32-.89a21.17,21.17,0,0,0-.79-3.19,12.71,12.71,0,0,1-1.4-5.49,14,14,0,0,1,3.91-9.25,14.09,14.09,0,0,1-.83,2.76,7.11,7.11,0,0,0-.21,4,31.5,31.5,0,0,1,.32,3.58,31.12,31.12,0,0,1-.39,4.23s-.08.4.07.4.28-.32.28-.32a8.24,8.24,0,0,1,1.8-4.24c1.65-2,4.62-3.22,5.09-4.12,0,0-.22,3.16-3.7,6.85-3.09,3.29-2.18,1.61-3.19,4.3a7.9,7.9,0,0,0-.43,1.22c0,.22-.21.14-.21.14"></path><path class="cls-3" d="M167.28,52.37a2.57,2.57,0,0,1,.46-1.4c.54-1,0-2.68.69-5.19s2-6.82,7.09-9.4a6.84,6.84,0,0,0-.75.83,20.15,20.15,0,0,0-2,4.73A17.27,17.27,0,0,1,170,47.43c-.64.68-.36.75-.36.75a1.19,1.19,0,0,0,.65-.58,7.72,7.72,0,0,1,3.8-2.79A35.32,35.32,0,0,0,179,43.34a33.85,33.85,0,0,1-6.06,4.87c-2.9,1.65-3.22,1.15-4.94,3.37,0,0-.58.79-.72.79"></path><path class="cls-3" d="M174.23,42.8s0-.29.54-.79,1.08-2,2-3.41a11.77,11.77,0,0,1,8.53-5.91,15,15,0,0,0-1.9,1.61,33.71,33.71,0,0,1-2.58,3.23,20.46,20.46,0,0,1-3.44,2.54s-.36.29-.29.4.43-.11.43-.11a8.13,8.13,0,0,1,4.2-1.54c2.29-.07,4.69,0,5.05.07,0,0-2.15,1.47-7.28,2.4s-4.16,1-4.94,1.47c0,0-.18.15-.33,0"></path><path class="cls-3" d="M183.38,36.85s.1-.29.93-.54.75-1,3.26-2.37,5.13-1.93,7.78-.82c0,0-1.11.14-1.29.21s-2.08.58-2.62.87A28.26,28.26,0,0,1,187,35.92c-1.11.21-.57.28-.57.28a1.38,1.38,0,0,0,.46.11,12.66,12.66,0,0,1,4.31.32c1.61.58,1.57.79,2.22,1s1.4.35,1.51.61c0,0-1.62.14-2.59.14a14.9,14.9,0,0,1-4.73-.82,6.48,6.48,0,0,0-3.08-.72,2.26,2.26,0,0,1-1.18,0"></path><path class="cls-3" d="M193.56,35.59s.11-.14.82-.28a17.81,17.81,0,0,1,2.58-.94,8.42,8.42,0,0,1,6.71,1l-1.79,0c-.33,0-3.12.5-3.77.5s-1.94-.29-2.11-.07,1.18.5,1.39.57a4.45,4.45,0,0,1,2.41,1.33,18,18,0,0,0,2.22,1.9,31.43,31.43,0,0,1-4.48-1.33c-.9-.5-2.44-2-2.69-2.15s-1.29-.47-1.29-.47"></path><path class="cls-3" d="M201.84,37.06a7.93,7.93,0,0,1,3.91,1c1.65,1,3,2.4,3.12,3.23a6.22,6.22,0,0,0-1.54-1,21,21,0,0,1-2.69-1.36c-.36-.22-2.44-1.54-2.8-1.87"></path><path class="cls-3" d="M212.45,88.8s.32-.33,1.4-1.26,1.36-2.29,2.55-4.41A19.38,19.38,0,0,1,221,77.4a19.56,19.56,0,0,0-.46,2.11,10.28,10.28,0,0,1-1.79,4.91c-1.37,1.62-1.44,2-3,2.94,0,0-.61.43-.57.58s1.08,0,1.08,0,1.14-.43,1.5-.64,2-1,2.62-1.3A25,25,0,0,1,223,85c1.43-.43,6.63-1.75,8.67-5a10.7,10.7,0,0,1-1.36,2.83c-.75.9-5,6.52-10.93,6.42,0,0-2.34-.18-3.55-.4a6.73,6.73,0,0,0-1.83-.18,5.54,5.54,0,0,1-1.51.15"></path><path class="cls-3" d="M225.68,68.68a21.14,21.14,0,0,0-2.72,8.5c-.51,5,.35,3.51-.47,5.74,0,0-.29.57-.18.61a9.12,9.12,0,0,0,2.12-1.19c1.57-1,3.12-.68,6.48-3.9S235,68.79,235,68.25a3.6,3.6,0,0,0-.76,1.37,4.66,4.66,0,0,1-.89,1.65c-.11.1-3.77,4.12-4.2,4.48a33.59,33.59,0,0,0-3,3.73c-.47.75-1.83,2.11-2.08,2a2.16,2.16,0,0,1,.14-.57,13.33,13.33,0,0,0,1.54-3.19,14.6,14.6,0,0,0,.58-3.55c0-1-.61-4.7-.65-5.49"></path><path class="cls-3" d="M228.69,73.52a1.23,1.23,0,0,1,0-.89,6.09,6.09,0,0,0-.43-3.34c-.65-1.39-2-5.27-1.94-7.85s.4-2.94.4-2.94.71,2.12.93,2.48,2.36,4.15,2.18,6.23a12,12,0,0,0-.18,2.76c.11,0,.36-.25.4-.5a20.21,20.21,0,0,1,1.07-3.37c.69-1.68,3.45-5.41,4.06-7.88a12.69,12.69,0,0,1-1.51,8.31c-2.4,4-2.65,3.12-3.66,5s-1.14,2-1.29,2"></path><path class="cls-3" d="M230.88,62.16c-.18,0-.07-1.69-.5-2.22s-4.13-4.92-4.91-9.29c0,0,2.33,2.37,2.72,2.62a8.55,8.55,0,0,1,2.44,3.19c.46,1.36.36,2.51.54,2.54s.18-1.5.18-1.5a39.2,39.2,0,0,1,.28-4.45c.25-1.43.9-3.83.61-5a10.5,10.5,0,0,1,1.33,5.38,14.4,14.4,0,0,1-1.58,6,11.22,11.22,0,0,0-.68,2.22c0,.32-.43.54-.43.54"></path><path class="cls-3" d="M226.51,39.72s4.84,2.86,4.08,12.47c0,0,0,.43-.28,0a9.73,9.73,0,0,0-1.8-2.08c-.46-.29-4.77-2.91-6.59-6.92,0,0,.28-.07.71.32a12.39,12.39,0,0,0,2,1.18,7.13,7.13,0,0,1,2.83,1.72,9.62,9.62,0,0,1,1.83,2.84s.32.25.1-.47a6.19,6.19,0,0,0-.82-2.08,9,9,0,0,1-1.15-3.62,7.19,7.19,0,0,0-.89-3.33"></path><path class="cls-3" d="M225.68,43.09a2.68,2.68,0,0,0-.36-1.55c-.46-.89-.1-1.89-1.58-4.26-.82-1.33-3.69-2.37-3.69-2.37s.83,1.15,1.36,1.79a7.08,7.08,0,0,1,.9,1.44c.18.32,1.18,1.28,1.54,1.83a1.34,1.34,0,0,1,.22.57c0,.18-.4-.11-.5-.22a9.66,9.66,0,0,0-3-1.64,29.19,29.19,0,0,1-3.8-.72A14.53,14.53,0,0,0,222,40.9a6,6,0,0,1,3.66,2.19"></path><path class="cls-3" d="M220,37.17a9,9,0,0,0-7-3.33,1.54,1.54,0,0,0,.75.35c.5.11,1.4,1,1.86,1.29A12,12,0,0,0,220,37.17"></path><path class="cls-3" d="M82.41,32.5V74.62a24.19,24.19,0,0,1-1.84,9.75,19.71,19.71,0,0,1-5.08,7.08,21.62,21.62,0,0,1-7.74,4.3A31.9,31.9,0,0,1,58,97.19a32,32,0,0,1-9.84-1.44,21.62,21.62,0,0,1-7.74-4.3,19.54,19.54,0,0,1-5.06-7.08,24.54,24.54,0,0,1-1.82-9.75V32.5H46.65V74.62q0,6.27,3,9.14T58,86.63q5.34,0,8.3-2.87t3-9.14V32.5Z"></path><polygon class="cls-3" points="145.09 96.31 131.94 96.31 106.34 54.33 106.34 96.31 93.2 96.31 93.2 32.5 106.34 32.5 131.99 74.58 131.99 32.5 145.09 32.5 145.09 96.31"></polygon><path class="cls-3" d="M43,137.54A9.12,9.12,0,0,1,36.25,135,9.3,9.3,0,0,1,33.64,128v-.49a11.86,11.86,0,0,1,1.1-5.18,8.19,8.19,0,0,1,3.11-3.51,8.58,8.58,0,0,1,4.58-1.23,7.71,7.71,0,0,1,6.08,2.48q2.22,2.49,2.22,7v2.09h-12a4.9,4.9,0,0,0,1.47,3,4.4,4.4,0,0,0,3.11,1.13,5.38,5.38,0,0,0,4.54-2.14l2.47,2.82a7.51,7.51,0,0,1-3.06,2.54,9.9,9.9,0,0,1-4.28.92m-.58-15.78a3.11,3.11,0,0,0-2.42,1,5.37,5.37,0,0,0-1.19,3h7v-.41a3.87,3.87,0,0,0-.9-2.64,3.2,3.2,0,0,0-2.48-.94"></path><path class="cls-3" d="M58.43,118l.15,2.22A6.54,6.54,0,0,1,64,117.63a5.41,5.41,0,0,1,4.46,1.79,8.48,8.48,0,0,1,1.49,5.36v12.4h-5V124.9a3.39,3.39,0,0,0-.7-2.37,3.08,3.08,0,0,0-2.31-.73,3.45,3.45,0,0,0-3.19,1.84v13.54h-5V118Z"></path><polygon class="cls-3" points="81.02 130.92 84.51 117.98 89.77 117.98 83.42 137.18 78.61 137.18 72.27 117.98 77.52 117.98 81.02 130.92"></polygon><path class="cls-3" d="M92.16,113a2.57,2.57,0,0,1,.75-1.9,3.24,3.24,0,0,1,4.12,0,2.77,2.77,0,0,1,0,3.82,3.16,3.16,0,0,1-4.09,0,2.54,2.54,0,0,1-.77-1.92m5.34,24.17h-5V118h5Z"></path><path class="cls-3" d="M112.43,122.79a14.14,14.14,0,0,0-1.81-.14c-1.9,0-3.15.66-3.74,2v12.56h-5V118h4.75l.14,2.29a4.65,4.65,0,0,1,4.19-2.64,5.32,5.32,0,0,1,1.57.23Z"></path><path class="cls-3" d="M113.65,127.41a11.58,11.58,0,0,1,1.08-5.1,8,8,0,0,1,3.11-3.46,9,9,0,0,1,4.71-1.22,8.5,8.5,0,0,1,6.22,2.37,9.65,9.65,0,0,1,2.68,6.46l0,1.32a10.18,10.18,0,0,1-2.42,7.09,9.25,9.25,0,0,1-13,0,10.34,10.34,0,0,1-2.43-7.24Zm5,.36a7.35,7.35,0,0,0,1,4.19,3.59,3.59,0,0,0,5.74,0,7.91,7.91,0,0,0,1-4.57,7.16,7.16,0,0,0-1-4.16,3.53,3.53,0,0,0-5.74,0,8.14,8.14,0,0,0-1,4.54"></path><path class="cls-3" d="M139.42,118l.16,2.22a6.54,6.54,0,0,1,5.41-2.57,5.41,5.41,0,0,1,4.46,1.79,8.48,8.48,0,0,1,1.49,5.36v12.4h-5V124.9a3.39,3.39,0,0,0-.69-2.37,3.1,3.1,0,0,0-2.32-.73,3.44,3.44,0,0,0-3.18,1.84v13.54h-5V118Z"></path><path class="cls-3" d="M159.68,118l.16,2.15a6.55,6.55,0,0,1,5.41-2.5,5,5,0,0,1,5,2.93,6.4,6.4,0,0,1,5.65-2.93,5.55,5.55,0,0,1,4.56,1.82c1,1.21,1.49,3,1.49,5.47v12.26h-5V124.94a3.7,3.7,0,0,0-.63-2.39,2.75,2.75,0,0,0-2.21-.75,3.13,3.13,0,0,0-3.13,2.2l0,13.18h-5V125a3.67,3.67,0,0,0-.64-2.42,2.8,2.8,0,0,0-2.2-.74,3.24,3.24,0,0,0-3.09,1.81v13.57h-5V118Z"></path><path class="cls-3" d="M194.7,137.54A9.14,9.14,0,0,1,188,135a9.34,9.34,0,0,1-2.6-6.91v-.49a11.86,11.86,0,0,1,1.1-5.18,8.17,8.17,0,0,1,3.1-3.51,8.62,8.62,0,0,1,4.59-1.23,7.73,7.73,0,0,1,6.08,2.48q2.22,2.49,2.22,7v2.09h-12a4.8,4.8,0,0,0,1.47,3A4.38,4.38,0,0,0,195,133.4a5.4,5.4,0,0,0,4.54-2.14l2.47,2.82a7.61,7.61,0,0,1-3.07,2.54,9.82,9.82,0,0,1-4.27.92m-.58-15.78a3.12,3.12,0,0,0-2.43,1,5.44,5.44,0,0,0-1.19,3h7v-.41a3.87,3.87,0,0,0-.91-2.64,3.18,3.18,0,0,0-2.47-.94"></path><path class="cls-3" d="M210.13,118l.16,2.22a6.54,6.54,0,0,1,5.41-2.57,5.39,5.39,0,0,1,4.45,1.79,8.41,8.41,0,0,1,1.5,5.36v12.4h-5V124.9a3.39,3.39,0,0,0-.69-2.37,3.1,3.1,0,0,0-2.32-.73,3.43,3.43,0,0,0-3.18,1.84v13.54h-5V118Z"></path><path class="cls-3" d="M231.69,113.26V118h3.22v3.76h-3.22v9.59a2.33,2.33,0,0,0,.4,1.52,2,2,0,0,0,1.54.46,8,8,0,0,0,1.47-.12v3.89a10.37,10.37,0,0,1-3,.46q-5.3,0-5.39-5.45V121.74h-2.75V118h2.75v-4.72Z"></path><path class="cls-3" d="M50.59,162.3a11.73,11.73,0,0,1-2,7.11,6.31,6.31,0,0,1-5.34,2.67,5.85,5.85,0,0,1-4.61-2v9.05h-5V152.52h4.67l.17,1.88a5.87,5.87,0,0,1,4.77-2.23,6.33,6.33,0,0,1,5.41,2.62A12,12,0,0,1,50.59,162Zm-5-.37a7.69,7.69,0,0,0-.93-4.14,3,3,0,0,0-2.7-1.45,3.29,3.29,0,0,0-3.26,1.84v7.87A3.35,3.35,0,0,0,42,167.94q3.6,0,3.6-6"></path><path class="cls-3" d="M64.5,157.33a14.28,14.28,0,0,0-1.81-.14c-1.9,0-3.15.66-3.74,2v12.57h-5V152.52h4.75l.14,2.29A4.65,4.65,0,0,1,63,152.17a5.32,5.32,0,0,1,1.57.23Z"></path><path class="cls-3" d="M65.72,162a11.58,11.58,0,0,1,1.08-5.1,8,8,0,0,1,3.11-3.46,8.94,8.94,0,0,1,4.7-1.22,8.5,8.5,0,0,1,6.22,2.37A9.65,9.65,0,0,1,83.52,161l0,1.32a10.17,10.17,0,0,1-2.41,7.09,9.25,9.25,0,0,1-13,0,10.34,10.34,0,0,1-2.43-7.24Zm5,.36a7.27,7.27,0,0,0,1,4.19,3.59,3.59,0,0,0,5.74,0,7.89,7.89,0,0,0,1-4.57,7.16,7.16,0,0,0-1-4.16,3.31,3.31,0,0,0-2.89-1.48,3.25,3.25,0,0,0-2.85,1.47,8.05,8.05,0,0,0-1,4.54"></path><path class="cls-3" d="M86.14,162a11.35,11.35,0,0,1,2.06-7.11,6.62,6.62,0,0,1,5.56-2.7,5.79,5.79,0,0,1,4.81,2.16l.21-1.81h4.56v18.57a8.3,8.3,0,0,1-1.12,4.38,7.27,7.27,0,0,1-3.16,2.84,10.92,10.92,0,0,1-4.77,1,10.15,10.15,0,0,1-4-.84,7.2,7.2,0,0,1-3-2.17l2.23-3.13a5.84,5.84,0,0,0,4.56,2.15,4.24,4.24,0,0,0,3.11-1.09,4.15,4.15,0,0,0,1.11-3.1v-1a5.73,5.73,0,0,1-4.57,2,6.61,6.61,0,0,1-5.49-2.71,11.37,11.37,0,0,1-2.09-7.18Zm5,.38a7.06,7.06,0,0,0,1,4.1A3.23,3.23,0,0,0,95,167.94a3.45,3.45,0,0,0,3.28-1.76V158.1A3.46,3.46,0,0,0,95,156.34a3.26,3.26,0,0,0-2.84,1.51,8,8,0,0,0-1,4.51"></path><path class="cls-3" d="M118,157.33a14.28,14.28,0,0,0-1.81-.14c-1.91,0-3.15.66-3.74,2v12.57h-5V152.52h4.75l.14,2.29a4.64,4.64,0,0,1,4.19-2.64,5.32,5.32,0,0,1,1.57.23Z"></path><path class="cls-3" d="M131,171.72a5.65,5.65,0,0,1-.51-1.72,6,6,0,0,1-4.75,2.08,6.59,6.59,0,0,1-4.58-1.63,5.28,5.28,0,0,1-1.82-4.12,5.47,5.47,0,0,1,2.22-4.69c1.48-1.09,3.61-1.63,6.41-1.65h2.31v-1.1a3.22,3.22,0,0,0-.67-2.13,2.6,2.6,0,0,0-2.11-.79,2.91,2.91,0,0,0-2,.62,2.1,2.1,0,0,0-.73,1.7h-5a5.25,5.25,0,0,1,1-3.09,6.82,6.82,0,0,1,2.86-2.23,10.36,10.36,0,0,1,4.14-.8A8.09,8.09,0,0,1,133.3,154a6.29,6.29,0,0,1,2,5v8.32a9.24,9.24,0,0,0,.75,4.13v.3Zm-4.16-3.56a4.24,4.24,0,0,0,2-.51,3.26,3.26,0,0,0,1.39-1.36V163h-1.88q-3.76,0-4,2.67v.3a2.08,2.08,0,0,0,.66,1.58,2.55,2.55,0,0,0,1.81.62"></path><path class="cls-3" d="M144.14,152.52l.15,2.15a6.57,6.57,0,0,1,5.42-2.5,5,5,0,0,1,5,2.93,6.41,6.41,0,0,1,5.65-2.93,5.53,5.53,0,0,1,4.56,1.82,8.44,8.44,0,0,1,1.5,5.47v12.26h-5V159.48a3.78,3.78,0,0,0-.62-2.39,2.76,2.76,0,0,0-2.21-.75,3.15,3.15,0,0,0-3.14,2.2l0,13.18h-5V159.5a3.69,3.69,0,0,0-.65-2.42,2.79,2.79,0,0,0-2.19-.74,3.25,3.25,0,0,0-3.1,1.81v13.57h-5v-19.2Z"></path><path class="cls-3" d="M175.2,152.52l.16,2.15a6.54,6.54,0,0,1,5.41-2.5,5,5,0,0,1,5,2.93,6.41,6.41,0,0,1,5.66-2.93A5.55,5.55,0,0,1,196,154a8.5,8.5,0,0,1,1.49,5.47v12.26h-5V159.48a3.71,3.71,0,0,0-.63-2.39,2.76,2.76,0,0,0-2.21-.75,3.13,3.13,0,0,0-3.13,2.2l0,13.18h-5V159.5a3.69,3.69,0,0,0-.65-2.42,2.79,2.79,0,0,0-2.19-.74,3.22,3.22,0,0,0-3.09,1.81v13.57h-5v-19.2Z"></path><path class="cls-3" d="M210.21,172.08a9.12,9.12,0,0,1-6.74-2.59,9.34,9.34,0,0,1-2.6-6.91v-.49a11.86,11.86,0,0,1,1.1-5.18,8.17,8.17,0,0,1,3.1-3.51,8.62,8.62,0,0,1,4.59-1.23,7.73,7.73,0,0,1,6.08,2.48c1.48,1.66,2.21,4,2.21,7v2.09H206a4.78,4.78,0,0,0,1.47,3,4.37,4.37,0,0,0,3.1,1.13,5.38,5.38,0,0,0,4.54-2.14l2.47,2.82a7.43,7.43,0,0,1-3.06,2.54,9.73,9.73,0,0,1-4.28.92m-.57-15.78a3.12,3.12,0,0,0-2.43,1,5.37,5.37,0,0,0-1.19,3h7v-.42a3.82,3.82,0,0,0-.9-2.64,3.2,3.2,0,0,0-2.47-.94"></path><rect class="cls-3" x="252.63" y="32.5" width="3" height="139.49"></rect><polygon class="cls-3" points="279.68 149.15 276.3 149.15 276.3 135.23 272.82 135.23 272.82 132.65 279.68 132.04 279.68 149.15"></polygon><path class="cls-3" d="M296.7,78a21.42,21.42,0,0,0-5.88.94,15.14,15.14,0,0,0-4.49,2.16l1.74-14.81h25V56.12H277.66L274,91.58l11.2.74A7.36,7.36,0,0,1,288,88.66a9.77,9.77,0,0,1,5.6-1.35,7.64,7.64,0,0,1,6.71,3.25q2.26,3.24,2.26,8.73t-2.07,8.45c-1.38,2-3.58,3-6.59,3a8.88,8.88,0,0,1-6.28-2.22,8,8,0,0,1-2.39-6.18l-12.24.56-.09.22a14.48,14.48,0,0,0,6,12.74,24.4,24.4,0,0,0,15,4.64q10.85,0,16.11-6t5.27-15.29q0-10.1-4.85-15.7T296.7,78"></path><path class="cls-3" d="M290.23,146.8a2.56,2.56,0,0,0,2-.94,4,4,0,0,0,.8-2.64v-1.09a3.63,3.63,0,0,1-1.35,1.1,3.74,3.74,0,0,1-1.66.37,4.63,4.63,0,0,1-3.69-1.52,6.07,6.07,0,0,1-1.34-4.16,5.86,5.86,0,0,1,1.59-4.21,5.35,5.35,0,0,1,4.05-1.67,5.46,5.46,0,0,1,4.16,1.72,6.66,6.66,0,0,1,1.61,4.75v4.54a6.18,6.18,0,0,1-1.76,4.63,6.08,6.08,0,0,1-4.46,1.72,9.49,9.49,0,0,1-3.57-.73l.57-2.45a7.44,7.44,0,0,0,1.42.44,7.61,7.61,0,0,0,1.58.14m.4-5.67a3,3,0,0,0,1.45-.34,2.72,2.72,0,0,0,1-.9v-2a3.93,3.93,0,0,0-.65-2.43,2.08,2.08,0,0,0-1.74-.84,1.88,1.88,0,0,0-1.64.94,4.12,4.12,0,0,0-.63,2.33,4.19,4.19,0,0,0,.57,2.32,1.84,1.84,0,0,0,1.64.89"></path><path class="cls-3" d="M310.36,134.89a22.1,22.1,0,0,0-3.89,6,17,17,0,0,0-1,6.15v2.08h-3.38v-2.08a15.6,15.6,0,0,1,1.29-6.42,23.16,23.16,0,0,1,3.76-5.76H298.5v-2.6h11.86Z"></path><path class="cls-3" d="M324,149.15H312.65v-2.21l5.22-5.91a13.19,13.19,0,0,0,1.66-2.33,3.88,3.88,0,0,0,.5-1.76,2.49,2.49,0,0,0-.53-1.66,1.9,1.9,0,0,0-1.56-.63,2,2,0,0,0-1.7.8,3.23,3.23,0,0,0-.61,2h-3.29l0-.07a5,5,0,0,1,1.48-3.81,5.56,5.56,0,0,1,4.14-1.56,5.7,5.7,0,0,1,4,1.33,4.6,4.6,0,0,1,1.44,3.56,5,5,0,0,1-.81,2.77,30.51,30.51,0,0,1-2.77,3.46l-2.78,3.34,0,.06H324Z"></path><rect class="cls-3" x="326.59" y="140.64" width="6.82" height="2.61"></rect><path class="cls-3" d="M347.91,149.15H336.59v-2.21l5.23-5.91a13.19,13.19,0,0,0,1.66-2.33,3.86,3.86,0,0,0,.49-1.76,2.48,2.48,0,0,0-.52-1.66,1.91,1.91,0,0,0-1.56-.63,2,2,0,0,0-1.71.8,3.28,3.28,0,0,0-.6,2h-3.29l0-.07a5,5,0,0,1,1.48-3.81,5.55,5.55,0,0,1,4.14-1.56,5.7,5.7,0,0,1,4,1.33,4.63,4.63,0,0,1,1.43,3.56,5.06,5.06,0,0,1-.8,2.77,30.85,30.85,0,0,1-2.78,3.46L341,146.5l0,.06h6.89Z"></path><path class="cls-3" d="M361.36,143.05a6.61,6.61,0,0,1-1.56,4.66,5.93,5.93,0,0,1-8.29,0,6.61,6.61,0,0,1-1.56-4.66V138.4a6.6,6.6,0,0,1,1.56-4.65,5.87,5.87,0,0,1,8.28,0,6.56,6.56,0,0,1,1.57,4.65Zm-3.37-5a4.4,4.4,0,0,0-.62-2.52,2,2,0,0,0-1.72-.89,2,2,0,0,0-1.72.89,4.41,4.41,0,0,0-.61,2.52v5.31a4.45,4.45,0,0,0,.61,2.55,2,2,0,0,0,1.74.88,2,2,0,0,0,1.71-.88,4.45,4.45,0,0,0,.61-2.55Z"></path><path class="cls-3" d="M375.13,149.15H363.82v-2.21L369,141a13.19,13.19,0,0,0,1.66-2.33,3.88,3.88,0,0,0,.5-1.76,2.49,2.49,0,0,0-.53-1.66,1.9,1.9,0,0,0-1.56-.63,2,2,0,0,0-1.7.8,3.23,3.23,0,0,0-.61,2h-3.29l0-.07A5,5,0,0,1,365,133.6a5.56,5.56,0,0,1,4.14-1.56,5.7,5.7,0,0,1,4,1.33,4.6,4.6,0,0,1,1.44,3.56,5,5,0,0,1-.81,2.77,30.51,30.51,0,0,1-2.77,3.46l-2.78,3.34,0,.06h6.89Z"></path><path class="cls-3" d="M388.75,149.15H377.43v-2.21l5.22-5.91a12.68,12.68,0,0,0,1.66-2.33,3.88,3.88,0,0,0,.5-1.76,2.54,2.54,0,0,0-.52-1.66,1.92,1.92,0,0,0-1.57-.63,2,2,0,0,0-1.7.8,3.28,3.28,0,0,0-.6,2h-3.29l0-.07a5,5,0,0,1,1.49-3.81,5.53,5.53,0,0,1,4.13-1.56,5.68,5.68,0,0,1,4,1.33,4.6,4.6,0,0,1,1.44,3.56,5,5,0,0,1-.81,2.77,30.51,30.51,0,0,1-2.77,3.46l-2.78,3.34,0,.06h6.9Z"></path><path class="cls-8" d="M329.64,72.44Z"></path><polygon class="cls-8" points="333.13 72.82 333.11 72.79 333.14 72.81 333.13 72.82"></polygon>
    </svg>