<svg xmlns="http://www.w3.org/2000/svg" viewBox="0 0 140 45" transform="scale(-1,1)"><rect width="3" height="20" x="2.9415254237288133" y="10" rx="10" ry="2" filter="none" fill="#facc6e"></rect><rect width="3" height="20" x="7.161016949152542" y="10" rx="10" ry="2" filter="none" fill="#facc6e"></rect><rect width="3" height="20" x="15.974576271186441" y="10" rx="10" ry="2" filter="none" fill="#f3b670"></rect><rect width="3" height="20" x="16.712711864406778" y="10" rx="10" ry="2" filter="none" fill="#f3b670"></rect><rect width="3" height="20" x="17.627118644067796" y="10" rx="10" ry="2" filter="none" fill="#f3b670"></rect><rect width="3" height="20" x="18.365254237288138" y="10" rx="10" ry="2" filter="none" fill="#f3b670"></rect><rect width="3" height="20" x="19.092372881355928" y="10" rx="10" ry="2" filter="none" fill="#f3b670"></rect><rect width="3" height="20" x="20.017796610169494" y="10" rx="10" ry="2" filter="none" fill="#f3b670"></rect><rect width="3" height="20" x="21.67033898305085" y="10" rx="10" ry="2" filter="none" fill="#f3b670"></rect><rect width="3" height="20" x="21.846610169491523" y="10" rx="10" ry="2" filter="none" fill="#f3b670"></rect><rect width="3" height="20" x="22.033898305084747" y="10" rx="10" ry="2" filter="none" fill="#eaa073"></rect><rect width="3" height="20" x="25.889830508474578" y="10" rx="10" ry="2" filter="none" fill="#eaa073"></rect><rect width="3" height="20" x="27.35508474576271" y="10" rx="10" ry="2" filter="none" fill="#eaa073"></rect><rect width="3" height="20" x="27.54237288135593" y="10" rx="10" ry="2" filter="none" fill="#eaa073"></rect><rect width="3" height="20" x="27.905932203389828" y="10" rx="10" ry="2" filter="none" fill="#eaa073"></rect><rect width="3" height="20" x="29.38220338983051" y="10" rx="10" ry="2" filter="none" fill="#eaa073"></rect><rect width="3" height="20" x="29.74576271186441" y="10" rx="10" ry="2" filter="none" fill="#eaa073"></rect><rect width="3" height="20" x="30.847457627118644" y="10" rx="10" ry="2" filter="none" fill="#eaa073"></rect><rect width="3" height="20" x="33.05084745762712" y="10" rx="10" ry="2" filter="none" fill="#de8b75"></rect><rect width="3" height="20" x="34.51610169491525" y="10" rx="10" ry="2" filter="none" fill="#de8b75"></rect><rect width="3" height="20" x="34.8906779661017" y="10" rx="10" ry="2" filter="none" fill="#de8b75"></rect><rect width="3" height="20" x="35.80508474576271" y="10" rx="10" ry="2" filter="none" fill="#de8b75"></rect><rect width="3" height="20" x="36.355932203389834" y="10" rx="10" ry="2" filter="none" fill="#de8b75"></rect><rect width="3" height="20" x="37.094067796610176" y="10" rx="10" ry="2" filter="none" fill="#de8b75"></rect><rect width="3" height="20" x="40.02457627118644" y="10" rx="10" ry="2" filter="none" fill="#de8b75"></rect><rect width="3" height="20" x="44.43135593220339" y="10" rx="10" ry="2" filter="none" fill="#d07877"></rect><rect width="3" height="20" x="46.083898305084745" y="10" rx="10" ry="2" filter="none" fill="#d07877"></rect><rect width="3" height="20" x="46.458474576271186" y="10" rx="10" ry="2" filter="none" fill="#d07877"></rect><rect width="3" height="20" x="47.18559322033898" y="10" rx="10" ry="2" filter="none" fill="#d07877"></rect><rect width="3" height="20" x="47.56016949152543" y="10" rx="10" ry="2" filter="none" fill="#d07877"></rect><rect width="3" height="20" x="47.92372881355932" y="10" rx="10" ry="2" filter="none" fill="#d07877"></rect><rect width="3" height="20" x="49.57627118644068" y="10" rx="10" ry="2" filter="none" fill="#d07877"></rect><rect width="3" height="20" x="53.244915254237284" y="10" rx="10" ry="2" filter="none" fill="#d07877"></rect><rect width="3" height="20" x="55.27203389830509" y="10" rx="10" ry="2" filter="none" fill="#bf6578"></rect><rect width="3" height="20" x="55.8228813559322" y="10" rx="10" ry="2" filter="none" fill="#bf6578"></rect><rect width="3" height="20" x="57.83898305084746" y="10" rx="10" ry="2" filter="none" fill="#bf6578"></rect><rect width="3" height="20" x="58.5771186440678" y="10" rx="10" ry="2" filter="none" fill="#bf6578"></rect><rect width="3" height="20" x="58.753389830508475" y="10" rx="10" ry="2" filter="none" fill="#bf6578"></rect><rect width="3" height="20" x="60.22966101694916" y="10" rx="10" ry="2" filter="none" fill="#bf6578"></rect><rect width="3" height="20" x="60.78050847457627" y="10" rx="10" ry="2" filter="none" fill="#bf6578"></rect><rect width="3" height="20" x="62.05847457627118" y="10" rx="10" ry="2" filter="none" fill="#bf6578"></rect><rect width="3" height="20" x="62.6093220338983" y="10" rx="10" ry="2" filter="none" fill="#bf6578"></rect><rect width="3" height="20" x="63.71101694915254" y="10" rx="10" ry="2" filter="none" fill="#bf6578"></rect><rect width="3" height="20" x="63.898305084745765" y="10" rx="10" ry="2" filter="none" fill="#bf6578"></rect><rect width="3" height="20" x="64.6364406779661" y="10" rx="10" ry="2" filter="none" fill="#bf6578"></rect><rect width="3" height="20" x="65.3635593220339" y="10" rx="10" ry="2" filter="none" fill="#bf6578"></rect><rect width="3" height="20" x="65.55084745762711" y="10" rx="10" ry="2" filter="none" fill="#bf6578"></rect><rect width="3" height="20" x="66.10169491525424" y="10" rx="10" ry="2" filter="none" fill="#ac557a"></rect><rect width="3" height="20" x="67.56694915254236" y="10" rx="10" ry="2" filter="none" fill="#ac557a"></rect><rect width="3" height="20" x="68.11779661016949" y="10" rx="10" ry="2" filter="none" fill="#ac557a"></rect><rect width="3" height="20" x="69.40677966101696" y="10" rx="10" ry="2" filter="none" fill="#ac557a"></rect><rect width="3" height="20" x="69.77033898305085" y="10" rx="10" ry="2" filter="none" fill="#ac557a"></rect><rect width="3" height="20" x="70.50847457627118" y="10" rx="10" ry="2" filter="none" fill="#ac557a"></rect><rect width="3" height="20" x="71.24661016949153" y="10" rx="10" ry="2" filter="none" fill="#ac557a"></rect><rect width="3" height="20" x="72.34830508474576" y="10" rx="10" ry="2" filter="none" fill="#ac557a"></rect><rect width="3" height="20" x="72.71186440677967" y="10" rx="10" ry="2" filter="none" fill="#ac557a"></rect><rect width="3" height="20" x="73.07542372881356" y="10" rx="10" ry="2" filter="none" fill="#ac557a"></rect><rect width="3" height="20" x="73.26271186440678" y="10" rx="10" ry="2" filter="none" fill="#ac557a"></rect><rect width="3" height="20" x="74.17711864406779" y="10" rx="10" ry="2" filter="none" fill="#ac557a"></rect><rect width="3" height="20" x="74.36440677966101" y="10" rx="10" ry="2" filter="none" fill="#ac557a"></rect><rect width="3" height="20" x="76.38050847457627" y="10" rx="10" ry="2" filter="none" fill="#ac557a"></rect><rect width="3" height="20" x="77.11864406779661" y="10" rx="10" ry="2" filter="none" fill="#95477c"></rect><rect width="3" height="20" x="80.2364406779661" y="10" rx="10" ry="2" filter="none" fill="#95477c"></rect><rect width="3" height="20" x="80.42372881355932" y="10" rx="10" ry="2" filter="none" fill="#95477c"></rect><rect width="3" height="20" x="80.78728813559322" y="10" rx="10" ry="2" filter="none" fill="#95477c"></rect><rect width="3" height="20" x="81.16186440677967" y="10" rx="10" ry="2" filter="none" fill="#95477c"></rect><rect width="3" height="20" x="82.81440677966101" y="10" rx="10" ry="2" filter="none" fill="#95477c"></rect><rect width="3" height="20" x="83.17796610169492" y="10" rx="10" ry="2" filter="none" fill="#95477c"></rect><rect width="3" height="20" x="83.36525423728814" y="10" rx="10" ry="2" filter="none" fill="#95477c"></rect><rect width="3" height="20" x="83.54152542372881" y="10" rx="10" ry="2" filter="none" fill="#95477c"></rect><rect width="3" height="20" x="83.91610169491526" y="10" rx="10" ry="2" filter="none" fill="#95477c"></rect><rect width="3" height="20" x="84.27966101694915" y="10" rx="10" ry="2" filter="none" fill="#95477c"></rect><rect width="3" height="20" x="85.0177966101695" y="10" rx="10" ry="2" filter="none" fill="#95477c"></rect><rect width="3" height="20" x="85.56864406779661" y="10" rx="10" ry="2" filter="none" fill="#95477c"></rect><rect width="3" height="20" x="85.9322033898305" y="10" rx="10" ry="2" filter="none" fill="#95477c"></rect><rect width="3" height="20" x="87.77203389830508" y="10" rx="10" ry="2" filter="none" fill="#95477c"></rect><rect width="3" height="20" x="88.13559322033899" y="10" rx="10" ry="2" filter="none" fill="#7a3b7f"></rect><rect width="3" height="20" x="92.90593220338982" y="10" rx="10" ry="2" filter="none" fill="#7a3b7f"></rect><rect width="3" height="20" x="93.28050847457628" y="10" rx="10" ry="2" filter="none" fill="#7a3b7f"></rect><rect width="3" height="20" x="94.19491525423729" y="10" rx="10" ry="2" filter="none" fill="#7a3b7f"></rect><rect width="3" height="20" x="94.55847457627118" y="10" rx="10" ry="2" filter="none" fill="#7a3b7f"></rect><rect width="3" height="20" x="95.66016949152542" y="10" rx="10" ry="2" filter="none" fill="#7a3b7f"></rect><rect width="3" height="20" x="96.21101694915254" y="10" rx="10" ry="2" filter="none" fill="#7a3b7f"></rect><rect width="3" height="20" x="97.8635593220339" y="10" rx="10" ry="2" filter="none" fill="#7a3b7f"></rect><rect width="3" height="20" x="98.60169491525424" y="10" rx="10" ry="2" filter="none" fill="#7a3b7f"></rect><rect width="3" height="20" x="100.06694915254236" y="10" rx="10" ry="2" filter="none" fill="#7a3b7f"></rect><rect width="3" height="20" x="101.1686440677966" y="10" rx="10" ry="2" filter="none" fill="#7a3b7f"></rect><rect width="3" height="20" x="101.35593220338983" y="10" rx="10" ry="2" filter="none" fill="#7a3b7f"></rect><rect width="3" height="20" x="101.71949152542372" y="10" rx="10" ry="2" filter="none" fill="#7a3b7f"></rect><rect width="3" height="20" x="102.27033898305085" y="10" rx="10" ry="2" filter="none" fill="#7a3b7f"></rect><rect width="3" height="20" x="102.64491525423729" y="10" rx="10" ry="2" filter="none" fill="#7a3b7f"></rect><rect width="3" height="20" x="107.05169491525425" y="10" rx="10" ry="2" filter="none" fill="#7a3b7f"></rect><rect width="3" height="20" x="107.22796610169492" y="10" rx="10" ry="2" filter="none" fill="#7a3b7f"></rect><rect width="3" height="20" x="107.77881355932203" y="10" rx="10" ry="2" filter="none" fill="#7a3b7f"></rect><rect width="3" height="20" x="108.15338983050847" y="10" rx="10" ry="2" filter="none" fill="#7a3b7f"></rect><rect width="3" height="20" x="109.25508474576272" y="10" rx="10" ry="2" filter="none" fill="#7a3b7f"></rect><rect width="3" height="20" x="109.9822033898305" y="10" rx="10" ry="2" filter="none" fill="#7a3b7f"></rect><rect width="3" height="20" x="110.72033898305085" y="10" rx="10" ry="2" filter="none" fill="#583382"></rect><rect width="3" height="20" x="111.27118644067797" y="10" rx="10" ry="2" filter="none" fill="#583382"></rect><rect width="3" height="20" x="112.37288135593221" y="10" rx="10" ry="2" filter="none" fill="#583382"></rect><rect width="3" height="20" x="114.38898305084746" y="10" rx="10" ry="2" filter="none" fill="#583382"></rect><rect width="3" height="20" x="114.93983050847457" y="10" rx="10" ry="2" filter="none" fill="#583382"></rect><rect width="3" height="20" x="115.12711864406779" y="10" rx="10" ry="2" filter="none" fill="#583382"></rect><rect width="3" height="20" x="115.86525423728814" y="10" rx="10" ry="2" filter="none" fill="#583382"></rect><rect width="3" height="20" x="119.34661016949153" y="10" rx="10" ry="2" filter="none" fill="#583382"></rect><rect width="3" height="20" x="119.89745762711864" y="10" rx="10" ry="2" filter="none" fill="#583382"></rect><rect width="3" height="20" x="123.02627118644068" y="10" rx="10" ry="2" filter="none" fill="#583382"></rect><rect width="3" height="20" x="130" y="10" rx="10" ry="2" filter="none" fill="#583382"></rect></svg>