<svg id="Layer_1" data-name="Layer 1" xmlns="http://www.w3.org/2000/svg" viewBox="0 0 99 72"><defs><style>.cls-1{fill:#fff;}</style></defs><path class="cls-1" d="M78.1,25a9.5,9.5,0,0,1-6.5-11.4l6.2.8s2.3.1,2.3,4.3A10.5,10.5,0,0,1,78.1,25Zm5.5,0a9.5,9.5,0,0,0,6.5-11.4l-6.2.8s-2.4.1-2.3,4.3A10.5,10.5,0,0,0,83.6,25ZM80.8,9a1.5,1.5,0,0,1,1.5,1.5,1.7,1.7,0,0,1-1,1.3V12l.5.2,8.3.9a9.6,9.6,0,0,0-9.2-6.8h0a9.6,9.6,0,0,0-9.1,6.8l8.3-.9.5-.2-.2-.2a1.4,1.4,0,0,1-.9-1.3A1.5,1.5,0,0,1,80.8,9Zm3.8,22.7.6-.3a10.8,10.8,0,0,0-8.6-3.7c-3.1,0-4.7,1.3-6.8,1.3a3,3,0,0,1-1.8-.5S69.1,30,72.8,30s4.6-1.6,6.5-1.6S83.8,30.8,84.6,31.7Z" transform="translate(0)"/><path class="cls-1" d="M76.3,31.7l-.5-.3s2.6-3.7,8.6-3.7c3.1,0,4.7,1.3,6.8,1.3a2.6,2.6,0,0,0,1.7-.5s-1,1.5-4.7,1.5-4.6-1.6-6.5-1.6S77.2,30.8,76.3,31.7Zm-2.8-4.3c-.1.3-1.3,0-2,.2a6.5,6.5,0,0,1-7.5-4s1.9,2.1,3.4,2.2a12.2,12.2,0,0,1,4.5,1.3h.3A.2.2,0,0,0,72,27a4.1,4.1,0,0,1-2.3-2.9c-.3-1.1-.2-2-.4-2.6a22.1,22.1,0,0,1,2.2,2.9C72.1,25.4,72.2,26.7,73.5,27.4Z" transform="translate(0)"/><path class="cls-1" d="M68.8,25c-.1.1-.4,0-.5-.1L66.2,24a5.8,5.8,0,0,1-3.5-5.9A4.7,4.7,0,0,0,64,20.3a12.6,12.6,0,0,1,2,1.6c.6.7,1.9,2.3,2,2.3V24a8.8,8.8,0,0,0-.7-1.2,6.4,6.4,0,0,1,.1-4.9,7.4,7.4,0,0,1,1,3.7,7.1,7.1,0,0,0,.3,3C68.6,24.5,68.9,25,68.8,25Z" transform="translate(0)"/><path class="cls-1" d="M65.8,20.5c0,.1-.3-.3-.5-.7s-1.7-1.9-1.9-2.3a5.3,5.3,0,0,1-.6-5.3s.1,0,.1.7a7.6,7.6,0,0,0,1.2,3,5.5,5.5,0,0,1,1.1,2.8s.1.3.2.3.1-.2.1-.2-.1-1.1-.1-1.8a4.3,4.3,0,0,1,1-2.7,3,3,0,0,0,.5-.7,1.5,1.5,0,0,1,.3-.5,9.8,9.8,0,0,1-.5,3.9c-.7,1.9-.9,2.2-.8,3.3S65.9,20.5,65.8,20.5Z" transform="translate(0)"/><path class="cls-1" d="M64.7,14.9c-.1,0-.1-.2-.2-.4a5.3,5.3,0,0,0-.4-1.6,7.8,7.8,0,0,1-.7-2.7,6.7,6.7,0,0,1,2-4.5,12.9,12.9,0,0,1-.5,1.4A4.3,4.3,0,0,0,64.8,9a8.2,8.2,0,0,1,.2,1.8,13.6,13.6,0,0,1-.2,2.1H65a4.3,4.3,0,0,1,.9-2.1c.8-1,2.2-1.5,2.5-2a6,6,0,0,1-1.8,3.4c-1.5,1.6-1.1.8-1.6,2.1l-.2.6Z" transform="translate(0)"/><path class="cls-1" d="M65.6,9.8a1.3,1.3,0,0,1,.3-.7c.2-.5-.1-1.4.3-2.6a6.7,6.7,0,0,1,3.5-4.6l-.4.4a13.8,13.8,0,0,0-1,2.3A8.5,8.5,0,0,1,67,7.3c-.4.4-.2.4-.2.4s.2,0,.3-.3A4.4,4.4,0,0,1,69,6l2.4-.7a17.8,17.8,0,0,1-3,2.4c-1.4.8-1.6.6-2.4,1.7S65.7,9.8,65.6,9.8Z" transform="translate(0)"/><path class="cls-1" d="M69,5.1s0-.2.3-.4.5-1,1-1.7A5.6,5.6,0,0,1,74.5.1l-1,.8L72.3,2.5a13.6,13.6,0,0,1-1.7,1.2l-.2.2c.1.1.3,0,.3,0a3.4,3.4,0,0,1,2-.8h2.5a11.5,11.5,0,0,1-3.6,1.2c-2.5.5-2,.5-2.4.7Z" transform="translate(0)"/><path class="cls-1" d="M73.5,2.1l.5-.2c.4-.1.3-.5,1.6-1.2A4.6,4.6,0,0,1,79.4.3h-.6L77.5.8a11.2,11.2,0,0,1-2.2.9h0a5.2,5.2,0,0,1,2.1.1l1.1.5.7.3H77.9a6.6,6.6,0,0,1-2.3-.4,4.1,4.1,0,0,0-1.5-.4A.6.6,0,0,1,73.5,2.1Z" transform="translate(0)"/><path class="cls-1" d="M78.5,1.5h.4A12.3,12.3,0,0,1,80.2.9a4.1,4.1,0,0,1,3.3.5h-.9l-1.9.2c-.3,0-.9-.1-1,0s.6.2.7.3a1.7,1.7,0,0,1,1.2.6l1.1,1-2.2-.7a9.8,9.8,0,0,1-1.4-1.1Z" transform="translate(0)"/><path class="cls-1" d="M82.6,2.2a4.1,4.1,0,0,1,1.9.5A3.6,3.6,0,0,1,86,4.3a2.5,2.5,0,0,0-.7-.5l-1.4-.6A11.3,11.3,0,0,1,82.6,2.2Zm5.2,25.4.7-.6a10.2,10.2,0,0,0,1.2-2.2A10.9,10.9,0,0,1,92,22a9.3,9.3,0,0,1-.3,1,4.7,4.7,0,0,1-.9,2.5c-.6.7-.6.9-1.4,1.4l-.3.3h.5l.8-.4,1.2-.6,1.3-.5c.7-.2,3.3-.8,4.3-2.4a5.6,5.6,0,0,1-.7,1.4c-.4.4-2.5,3.2-5.4,3.1l-1.7-.2h-.9C88.4,27.6,87.9,27.7,87.8,27.6Z" transform="translate(0)"/><path class="cls-1" d="M94.3,17.8a10.7,10.7,0,0,0-1.4,4.1c-.2,2.5.2,1.7-.2,2.8V25c.1.1.3-.1,1-.5s1.6-.4,3.2-2,2-4.7,2-5a2.5,2.5,0,0,0-.3.7c-.2.4-.4.8-.5.8s-1.8,2-2,2.2a15.7,15.7,0,0,0-1.5,1.9c-.3.3-.9,1-1,.9v-.2a5.6,5.6,0,0,0,.8-1.6,7.5,7.5,0,0,0,.3-1.7C94.6,19.9,94.3,18.1,94.3,17.8Z" transform="translate(0)"/><path class="cls-1" d="M95.7,20.1a.5.5,0,0,1,0-.4,2.8,2.8,0,0,0-.2-1.7,9.2,9.2,0,0,1-.9-3.8c0-1.3.2-1.4.2-1.4s.3,1,.4,1.2a6.7,6.7,0,0,1,1.1,3c-.1,1-.2,1.4-.1,1.4l.2-.3a10.7,10.7,0,0,1,.5-1.6,23.6,23.6,0,0,0,2-3.9,6.7,6.7,0,0,1-.7,4.1c-1.2,2-1.3,1.5-1.8,2.4s-.6,1-.7,1Z" transform="translate(0)"/><path class="cls-1" d="M96.8,14.6c-.1-.1,0-.9-.2-1.1a12.1,12.1,0,0,1-2.4-4.6,15.8,15.8,0,0,0,1.3,1.3,3.7,3.7,0,0,1,1.2,1.6c.2.6.2,1.2.3,1.2v-.7s.1-1.5.2-2.2a11.3,11.3,0,0,0,.3-2.5,4.7,4.7,0,0,1,.6,2.6,8.9,8.9,0,0,1-.7,3,4.9,4.9,0,0,0-.4,1.1Z" transform="translate(0)"/><path class="cls-1" d="M94.7,3.5s2.3,1.4,2,6.2c0,0,0,.2-.2-.1l-.8-1a7.9,7.9,0,0,1-3.3-3.4l.4.2.9.6a2.5,2.5,0,0,1,1.4.8A2.9,2.9,0,0,1,96,8.2s.2.1.1-.2a7.6,7.6,0,0,0-.4-1.1,3.5,3.5,0,0,1-.6-1.7A3.9,3.9,0,0,0,94.7,3.5Z" transform="translate(0)"/><path class="cls-1" d="M94.3,5.2a2.4,2.4,0,0,0-.2-.8,7,7,0,0,0-.8-2,4.1,4.1,0,0,0-1.8-1.2l.7.9.4.7.8.9v.2c0,.1-.2,0-.3-.1A5.1,5.1,0,0,0,91.8,3l-1.9-.3a6.5,6.5,0,0,0,2.6,1.4A3.5,3.5,0,0,1,94.3,5.2Z" transform="translate(0)"/><path class="cls-1" d="M91.5,2.3A4.4,4.4,0,0,0,88.1.6a.4.4,0,0,0,.3.2,3.1,3.1,0,0,1,.9.7A7.1,7.1,0,0,0,91.5,2.3ZM24,0V20.7a11.3,11.3,0,0,1-.9,4.7,9,9,0,0,1-2.5,3.5A11.7,11.7,0,0,1,16.8,31a15.1,15.1,0,0,1-4.8.7A14.7,14.7,0,0,1,7.2,31a8.3,8.3,0,0,1-3.8-2.1A9,9,0,0,1,.9,25.4,11.3,11.3,0,0,1,0,20.7V0H6.5V20.7c0,2,.4,3.5,1.4,4.4A5.5,5.5,0,0,0,12,26.5a5.5,5.5,0,0,0,4.1-1.4,6.1,6.1,0,0,0,1.4-4.4V0ZM54.7,31.3H48.3L35.7,10.7V31.3H29.3V0h6.4L48.3,20.6V0h6.4ZM4.7,51.5a4.5,4.5,0,0,1-3.4-1.3A4.5,4.5,0,0,1,.1,46.9v-.3a5.1,5.1,0,0,1,.5-2.5,4.2,4.2,0,0,1,1.5-1.7,4.5,4.5,0,0,1,2.3-.7,4.2,4.2,0,0,1,3,1.3,4.9,4.9,0,0,1,1,3.4v1.1H2.6a1.7,1.7,0,0,0,.7,1.4,2,2,0,0,0,1.5.6A2.5,2.5,0,0,0,7,48.4l1.2,1.4a2.9,2.9,0,0,1-1.4,1.3A5.2,5.2,0,0,1,4.7,51.5Zm-.3-7.7a1.3,1.3,0,0,0-1.2.5,2.6,2.6,0,0,0-.6,1.4H6v-.2a1.8,1.8,0,0,0-.4-1.3A1.6,1.6,0,0,0,4.4,43.8Zm7.8-1.9V43A3.4,3.4,0,0,1,15,41.8a2.7,2.7,0,0,1,2.1.8,4.1,4.1,0,0,1,.8,2.7v6.1H15.4V45.3a1.6,1.6,0,0,0-.3-1.1,1.6,1.6,0,0,0-1.2-.4,1.6,1.6,0,0,0-1.5.9v6.7H9.9V41.9Zm11.1,6.4L25,41.9h2.6l-3.1,9.4H22.1L19,41.9h2.6Zm5.5-8.8a1.2,1.2,0,0,1,.3-.9,1.3,1.3,0,0,1,1-.4,1.4,1.4,0,0,1,1.1.4,1.5,1.5,0,0,1,0,1.8,1.3,1.3,0,0,1-1,.4,1.2,1.2,0,0,1-1-.4A1,1,0,0,1,28.8,39.5Zm2.6,11.9H28.9V41.9h2.5Zm7.3-7.1h-.9a1.7,1.7,0,0,0-1.8,1v6.1H33.5V41.9h2.3V43A2.4,2.4,0,0,1,38,41.7h.8Zm.6,2.2a7,7,0,0,1,.5-2.5,5.2,5.2,0,0,1,1.6-1.7,4.1,4.1,0,0,1,2.3-.5,4,4,0,0,1,3,1.1A4.4,4.4,0,0,1,48,46.1v.6a5,5,0,0,1-1.2,3.5,4.6,4.6,0,0,1-6.4,0,5,5,0,0,1-1.2-3.5Zm2.5.2a3.3,3.3,0,0,0,.5,2.1,1.5,1.5,0,0,0,1.4.7,1.7,1.7,0,0,0,1.4-.7,4.4,4.4,0,0,0,.5-2.3,3.9,3.9,0,0,0-.5-2,1.7,1.7,0,0,0-2.8,0A4.2,4.2,0,0,0,41.8,46.7ZM52,41.9V43a3.4,3.4,0,0,1,2.7-1.2,2.9,2.9,0,0,1,2.2.8,4.1,4.1,0,0,1,.7,2.7v6.1H55.1V45.3a1.6,1.6,0,0,0-.3-1.1,1.2,1.2,0,0,0-1.1-.4,1.8,1.8,0,0,0-1.6.9v6.7H49.6V41.9Zm9.9,0V43a3.1,3.1,0,0,1,2.6-1.2,2.5,2.5,0,0,1,2.5,1.4,2.9,2.9,0,0,1,2.7-1.4,2.8,2.8,0,0,1,2.3.8,4.1,4.1,0,0,1,.7,2.7v6H70.3v-6a1.6,1.6,0,0,0-.3-1.1c-.2-.3-.5-.4-1.1-.4a1.5,1.5,0,0,0-1.5,1.1v6.4H64.9v-6a1.6,1.6,0,0,0-.3-1.1,1.1,1.1,0,0,0-1-.4,1.8,1.8,0,0,0-1.6.9v6.6H59.6V41.9Zm17.2,9.6a4.4,4.4,0,0,1-4.6-4.6v-.3a6.6,6.6,0,0,1,.5-2.5,4.2,4.2,0,0,1,1.5-1.7,4.8,4.8,0,0,1,2.3-.7,3.8,3.8,0,0,1,3,1.3,5,5,0,0,1,1.1,3.4v1.1H77a2.1,2.1,0,0,0,.7,1.4,2,2,0,0,0,1.5.6,2.8,2.8,0,0,0,2.3-1.1l1.2,1.4a3.7,3.7,0,0,1-1.5,1.3A5.2,5.2,0,0,1,79.1,51.5Zm-.3-7.7a1.3,1.3,0,0,0-1.2.5,2.6,2.6,0,0,0-.6,1.4h3.4v-.2a1.8,1.8,0,0,0-.4-1.3A1.6,1.6,0,0,0,78.8,43.8Zm7.8-1.9V43a3.4,3.4,0,0,1,2.7-1.2,2.9,2.9,0,0,1,2.2.8,4.8,4.8,0,0,1,.7,2.7v6.1H89.8V45.3a1.6,1.6,0,0,0-.3-1.1,1.5,1.5,0,0,0-1.2-.4,1.6,1.6,0,0,0-1.5.9v6.7H84.3V41.9Zm10.6-2.3v2.3h1.6v1.9H97.2v4.7a1.2,1.2,0,0,0,.2.7c.1.2.4.3.8.3h.7v1.9a3.9,3.9,0,0,1-1.5.2,2.4,2.4,0,0,1-2.7-2.6V43.8H93.4V41.9h1.4V39.6ZM8.7,63.7a6.3,6.3,0,0,1-.9,3.5,3.5,3.5,0,0,1-2.7,1.3,3,3,0,0,1-2.2-1v4.4H.4v-13H2.7v.9a3,3,0,0,1,2.3-1.1A3,3,0,0,1,7.8,60a5.8,5.8,0,0,1,.9,3.5Zm-2.5-.2a3.5,3.5,0,0,0-.4-2,1.6,1.6,0,0,0-1.3-.8,1.6,1.6,0,0,0-1.6.9v3.9a1.6,1.6,0,0,0,1.6.9C5.7,66.4,6.2,65.4,6.2,63.5Zm9.3-2.3h-.9a1.8,1.8,0,0,0-1.8.9v6.2H10.3V58.9h2.4V60a2.3,2.3,0,0,1,2.1-1.3h.8Zm.6,2.3a5.1,5.1,0,0,1,.6-2.5,3.5,3.5,0,0,1,1.5-1.7,4.4,4.4,0,0,1,2.3-.6,3.9,3.9,0,0,1,3,1.2A4.5,4.5,0,0,1,24.9,63v.7a5.1,5.1,0,0,1-1.2,3.5,4.6,4.6,0,0,1-6.4,0,5.2,5.2,0,0,1-1.2-3.6Zm2.5.2a3.7,3.7,0,0,0,.5,2,1.5,1.5,0,0,0,1.4.7,1.5,1.5,0,0,0,1.4-.7,4,4,0,0,0,.5-2.2,3.4,3.4,0,0,0-.5-2,1.6,1.6,0,0,0-2.8,0A4,4,0,0,0,18.6,63.7Zm7.5-.2A5.6,5.6,0,0,1,27.2,60a3,3,0,0,1,2.7-1.3,2.8,2.8,0,0,1,2.4,1.1v-.9h2.2V68a3.7,3.7,0,0,1-.6,2.1,3.4,3.4,0,0,1-1.5,1.4,6,6,0,0,1-2.4.5,4.3,4.3,0,0,1-1.9-.4,3,3,0,0,1-1.5-1.1L27.8,69A2.8,2.8,0,0,0,30,70a2.1,2.1,0,0,0,1.6-.5,2.5,2.5,0,0,0,.5-1.5v-.5a3,3,0,0,1-2.2,1,3.3,3.3,0,0,1-2.7-1.4,5.4,5.4,0,0,1-1.1-3.5Zm2.5.2a3.7,3.7,0,0,0,.5,2,1.9,1.9,0,0,0,3-.1v-4a1.7,1.7,0,0,0-1.6-.9,1.6,1.6,0,0,0-1.4.8A4.2,4.2,0,0,0,28.6,63.7Zm13.2-2.5h-.9c-.9,0-1.6.3-1.8.9v6.2H36.6V58.9h2.3V60a2.2,2.2,0,0,1,2-1.3h.8Zm6.4,7.1c-.2-.2-.2-.5-.3-.9a3,3,0,0,1-2.3,1.1,3.6,3.6,0,0,1-2.3-.8,2.7,2.7,0,0,1-.9-2.1,2.8,2.8,0,0,1,1.1-2.3,5.8,5.8,0,0,1,3.2-.8h1.1V62a1.5,1.5,0,0,0-.3-1,1.4,1.4,0,0,0-1.1-.4,1.2,1.2,0,0,0-.9.3.9.9,0,0,0-.4.8H42.6a3,3,0,0,1,.5-1.5,3.8,3.8,0,0,1,1.4-1.1,4.6,4.6,0,0,1,2.1-.4,4,4,0,0,1,2.7.9,3.4,3.4,0,0,1,1,2.5v4a5.8,5.8,0,0,0,.3,2.1H48.2Zm-2.1-1.8a1.6,1.6,0,0,0,1-.2,1.6,1.6,0,0,0,.7-.7V64h-.9c-1.3,0-1.9.4-2,1.3v.2a.9.9,0,0,0,.3.7A1.6,1.6,0,0,0,46.1,66.5Zm8.5-7.6v1a3.1,3.1,0,0,1,2.6-1.2,2.6,2.6,0,0,1,2.5,1.4,3.2,3.2,0,0,1,2.8-1.4,2.7,2.7,0,0,1,2.2.9,4.1,4.1,0,0,1,.7,2.7v6H63v-6a1.7,1.7,0,0,0-.3-1.2,1.1,1.1,0,0,0-1-.4,1.6,1.6,0,0,0-1.6,1.1v6.5H57.7v-6c0-.6-.1-1-.4-1.2a1.1,1.1,0,0,0-1-.4,1.6,1.6,0,0,0-1.5.9v6.7H52.3V58.8Zm15.2,0v1a3.4,3.4,0,0,1,2.7-1.2A2.4,2.4,0,0,1,75,60.1a3.4,3.4,0,0,1,2.8-1.4,2.7,2.7,0,0,1,2.2.9,4.1,4.1,0,0,1,.7,2.7v6H78.3v-6a1.7,1.7,0,0,0-.3-1.2,1.2,1.2,0,0,0-1.1-.4,1.6,1.6,0,0,0-1.6,1.1v6.5H72.9v-6a1.7,1.7,0,0,0-.3-1.2,1.2,1.2,0,0,0-1.1-.4,1.6,1.6,0,0,0-1.5.9v6.7H67.5V58.8ZM87,68.5a4.9,4.9,0,0,1-3.3-1.3,4.9,4.9,0,0,1-1.3-3.4v-.2A5.5,5.5,0,0,1,83,61a3.5,3.5,0,0,1,1.5-1.7,4,4,0,0,1,2.2-.6,3.8,3.8,0,0,1,3,1.2,5.2,5.2,0,0,1,1.1,3.5v1H84.9a2.8,2.8,0,0,0,.8,1.5,2.5,2.5,0,0,0,1.5.5,2.6,2.6,0,0,0,2.2-1l1.2,1.4A4.4,4.4,0,0,1,89.1,68,4.6,4.6,0,0,1,87,68.5Zm-.3-7.8a1.7,1.7,0,0,0-1.2.5,2.5,2.5,0,0,0-.5,1.5h3.4v-.2a1.7,1.7,0,0,0-.5-1.3A1.5,1.5,0,0,0,86.7,60.7Z" transform="translate(0)"/></svg>