<svg version="1.1" id="Layer_1" xmlns="http://www.w3.org/2000/svg" xmlns:xlink="http://www.w3.org/1999/xlink" x="0" y="0" viewBox="0 0 111.7 46.2" xml:space="preserve"><style>.st0{fill:#2aa4ca}.st1{fill:#63b6d2}</style><path class="st0" d="M50 16a6.2 6.2 0 01-4.3-5.9l.2-1.5 4 .5s1.5.1 1.5 2.8A6.6 6.6 0 0150 16M53.6 16a6.2 6.2 0 004.3-5.9l-.2-1.5-4 .5s-1.5.1-1.5 2.8a7.5 7.5 0 001.4 4.1M51.8 5.8c.5 0 .9.4.9.9 0 .4-.3.7-.6.9l-.1.1.3.1 5.3.6A6.2 6.2 0 0051.7 4a6.1 6.1 0 00-5.9 4.4l5.3-.6.3-.1-.1-.1c-.3-.2-.6-.5-.6-.9.2-.5.6-.9 1.1-.9M54.3 20.3l.4-.2s-1.7-2.3-5.5-2.3c-2 0-3 .8-4.4.8 0 0-.6.1-1.1-.3 0 0 .6 1 3 1 1.7 0 3-1 4.2-1 1.6-.1 2.8 1.4 3.4 2"/><path class="st0" d="M48.9 20.3l-.4-.2s1.7-2.3 5.5-2.3c2 0 3 .8 4.4.8 0 0 .6.1 1.1-.3 0 0-.6 1-3 1-1.7 0-3-1-4.2-1-1.6-.1-2.9 1.4-3.4 2M47.1 17.6c-.1.2-.8 0-1.3.1-.5.2-3.5.5-4.8-2.5 0 0 1.2 1.3 2.2 1.4s2 .3 2.9.8h.2l-.1-.1c-.1-.1-1-.4-1.5-1.8l-.3-1.7s1 1.1 1.4 1.8c.4.7.5 1.5 1.3 2"/><path class="st0" d="M44.1 16.1c-.1.1-.3 0-.3-.1-.1 0-.5-.3-1.4-.5a3.8 3.8 0 01-2.2-3.8s.2.8.9 1.4c.6.6.9.6 1.2 1.1s1.2 1.5 1.3 1.5v-.1l-.4-.8a4 4 0 01.1-3.1s.7 1.2.6 2.4c0 1.2-.1.9.2 1.9-.1-.2 0 0 0 .1"/><path class="st0" d="M42.2 13.2l-.4-.5c-.1-.2-1.1-1.2-1.2-1.5-.1-.2-1.2-1.5-.4-3.4l.1.4c0 .4.4 1.5.8 1.9.3.4.6 1.1.7 1.9l.1.1c.1.1.1-.1.1-.1v-1.1c0-.4.2-1.2.6-1.7l.3-.5.2-.3s.1 1.3-.4 2.5c-.4 1.2-.6 1.4-.5 2.1v.2z"/><path class="st0" d="M41.5 9.6l-.1-.3-.2-1c-.1-.2-.4-.9-.4-1.7s.4-2 1.2-2.9l-.3.9c-.3.6-.1 1.2-.1 1.3l.1 1.1-.1 1.3v.1l.1-.1s0-.7.6-1.3c.5-.6 1.5-1 1.6-1.3 0 0-.1 1-1.2 2.1-1 1-.7.5-1 1.4l-.2.4"/><path class="st0" d="M42.1 6.2l.1-.4c.2-.3 0-.9.2-1.6.2-.8.6-2.1 2.2-3 0 0-.2.1-.2.3s-.5.9-.6 1.5c-.1.6-.7 1.5-.9 1.7l-.1.2.2-.2c.1-.2.6-.7 1.2-.9l1.5-.5s-1 1-1.9 1.5c-.9.5-1 .4-1.6 1.1.1.1-.1.3-.1.3"/><path class="st0" d="M44.2 3.2l.2-.2c.2-.1.3-.6.6-1.1S46 .3 47.7 0l-.6.5-.8 1-1.1.8-.1.1h.1s.7-.4 1.4-.4h1.6s-.7.5-2.3.8c-1.6.3-1.3.3-1.6.5l-.1-.1"/><path class="st0" d="M47.1 1.4l.3-.2c.3-.1.2-.3 1-.7.8-.5 1.6-.6 2.5-.3l-.4.1-.8.3c-.2.1-1 .5-1.4.5l-.2.1h.1s.9-.1 1.4.1l.7.3.5.2H50c-.3 0-1.1-.1-1.5-.3s-.8-.3-1-.2l-.4.1"/><path class="st0" d="M50.3 1l.3-.1.8-.3c.5-.1 1.4-.2 2.1.3h-.6l-1.1.1h-.7c-.1.1.4.2.4.2s.4 0 .8.4l.7.6-1.4-.4c-.3-.1-.8-.6-.9-.7l-.4-.1"/><path class="st0" d="M52.9 1.4s.7 0 1.2.3.9.8 1 1l-.5-.3-.9-.4-.8-.6M56.3 17.7l.4-.4c.3-.3.4-.7.8-1.4s.7-1.1 1.4-1.8l-.1.7c0 .2-.1 1-.6 1.5-.4.5-.5.6-1 .9l-.2.2h.3l.5-.2.8-.4.8-.3c.5-.1 2.1-.5 2.7-1.6l-.4.9c-.2.3-1.6 2-3.4 2l-1.1-.1-.6-.1c.1.1-.3.1-.3.1"/><path class="st0" d="M60.4 11.4s-.7 1.1-.9 2.7c-.2 1.6.1 1.1-.1 1.8l-.1.2.7-.4c.5-.3 1-.2 2-1.2s1.3-3 1.3-3.2l-.2.4c0 .2-.2.5-.3.5l-1.3 1.4-1 1.2-.6.6v-.2c0-.1.4-.5.5-1l.2-1.1-.2-1.7"/><path class="st0" d="M61.4 12.9v-.3c0-.1.1-.6-.1-1s-.6-1.7-.6-2.5l.1-.9.2.8c.1.1.7 1.3.7 2l-.1.9.1-.2.3-1.1c.2-.5 1.1-1.7 1.3-2.5 0 0 .3 1.4-.5 2.6l-1.1 1.6-.3.6"/><path class="st0" d="M62.1 9.3c-.1 0 0-.5-.2-.7s-1.3-1.5-1.5-2.9l.9.8.8 1 .2.8.1-.5.1-1.4c.1-.5.3-1.2.2-1.6 0 0 .4.7.4 1.7s-.4 1.8-.5 1.9l-.2.7-.3.2"/><path class="st0" d="M60.7 2.3s1.5.9 1.3 3.9c0 0 0 .1-.1 0s-.4-.6-.6-.6c-.1-.1-1.5-.9-2.1-2.2l.2.1.6.4c.1.1.6.1 1 .5s.5.7.6.9c0 0 .1.1 0-.1l-.3-.6-.3-1.3-.3-1"/><path class="st0" d="M60.4 3.3l-.1-.5c-.1-.3 0-.6-.5-1.3-.3-.4-1.2-.7-1.2-.7l.4.6.3.5.5.6.1.2-.2-.1s-.6-.5-.9-.5l-1.2-.2s.8.7 1.6.9c.9.1 1.2.5 1.2.5"/><path class="st0" d="M58.6 1.5s-.8-1.1-2.2-1l.2.1.6.4c.2 0 .5.3 1.4.5M15.4 0v13.3c0 1.2-.2 2.2-.6 3.1-.4.9-.9 1.6-1.6 2.2s-1.5 1-2.4 1.3a10 10 0 01-6.2 0c-1-.3-1.8-.8-2.4-1.3S1 17.2.6 16.3s-.6-1.9-.6-3V0h4.1v13.3c0 1.3.3 2.3.9 2.9s1.6.8 2.7.8 2-.3 2.6-.9c.6-.6.9-1.6.9-2.9V0h4.2zM35.1 20.1h-4.2l-8-13.2v13.2h-4.1V0h4.1L31 13.2V0h4.1zM3 33c-.9 0-1.6-.3-2.1-.8-.6-.5-.9-1.2-.9-2.1v-.2c0-.6.1-1.2.4-1.6s.5-.8 1-1.1c.4-.3.9-.4 1.4-.4.8 0 1.5.3 1.9.8s.7 1.3.7 2.2v.7H1.6c0 .4.2.7.5 1 .3.2.6.4 1 .4.6 0 1.1-.2 1.4-.7l.8.9c-.2.3-.6.6-1 .8L3 33m-.2-4.9c-.3 0-.6.1-.8.3-.2.2-.3.5-.4.9h2.2v-.1c0-.4-.1-.6-.3-.8-.1-.2-.4-.3-.7-.3M7.8 26.9v.7c.4-.5 1-.8 1.7-.8.6 0 1.1.2 1.4.6.3.4.5.9.5 1.7V33H9.9v-3.9l-.2-.7-.7-.2c-.5 0-.8.2-1 .6v4.3H6.3v-6l1.5-.2zM14.9 31l1.1-4.1h1.7l-2 6h-1.5l-2-6h1.6zM18.4 25.3l.2-.6c.1-.2.4-.2.6-.2l.6.2c.2.2.2.4.2.6l-.2.6c-.2.2-.4.2-.6.2l-.6-.2-.2-.6m1.7 7.6h-1.6v-6h1.6v6zM24.8 28.4h-.6c-.6 0-1 .2-1.2.6v3.9h-1.6v-6H23v.7c.3-.5.8-.8 1.3-.8l.5.1v1.5zM25.2 29.9c0-.6.1-1.1.3-1.6.2-.5.5-.8 1-1.1.4-.3.9-.4 1.5-.4.8 0 1.5.2 2 .8.5.5.8 1.2.9 2v.4c0 .9-.2 1.7-.8 2.2-.5.6-1.2.8-2 .8s-1.5-.3-2-.8a3 3 0 01-.9-2.3zm1.6.1c0 .6.1 1 .3 1.3.2.3.5.5.9.5s.7-.2.9-.5.3-.8.3-1.4c0-.6-.1-1-.3-1.3-.2-.3-.5-.5-.9-.5s-.7.2-.9.5c-.2.3-.3.7-.3 1.4M33.3 26.9v.7c.4-.5 1-.8 1.7-.8.6 0 1.1.2 1.4.6.3.4.5.9.5 1.7V33h-1.6v-3.9l-.2-.7-.7-.2c-.5 0-.8.2-1 .6v4.3h-1.6v-6l1.5-.2zM39.7 26.9v.7c.4-.5 1-.8 1.7-.8.8 0 1.3.3 1.6.9a2 2 0 011.8-.9c.6 0 1.1.2 1.4.6s.5 1 .5 1.7V33h-1.6v-3.8l-.2-.8c-.1-.2-.4-.2-.7-.2-.5 0-.8.2-1 .7V33h-1.6v-3.8l-.2-.8c-.1-.2-.4-.2-.7-.2-.5 0-.8.2-1 .6v4.3h-1.6v-6c.1-.2 1.6-.2 1.6-.2zM50.7 33c-.9 0-1.6-.3-2.1-.8s-.8-1.3-.8-2.2v-.2c0-.6.1-1.2.4-1.6s.5-.8 1-1.1c.4-.3.9-.4 1.4-.4.8 0 1.5.3 1.9.8s.7 1.3.7 2.2v.7h-3.8c0 .4.2.7.5 1 .3.2.6.4 1 .4.6 0 1.1-.2 1.4-.7l.8.9c-.2.3-.6.6-1 .8l-1.4.2m-.2-4.9c-.3 0-.6.1-.8.3-.2.2-.3.5-.4.9h2.2v-.1c0-.4-.1-.6-.3-.8-.1-.2-.4-.3-.7-.3M55.5 26.9v.7c.4-.5 1-.8 1.7-.8.6 0 1.1.2 1.4.6.3.4.5.9.5 1.7V33h-1.6v-3.9l-.2-.7-.7-.2c-.5 0-.8.2-1 .6v4.3H54v-6l1.5-.2zM62.3 25.4v1.5h1v1.2h-1v3l.1.5.5.1h.5v1.2a3 3 0 01-1 .2c-1.1 0-1.7-.6-1.7-1.7v-3.2h-.9V27h.9v-1.5h1.6zM5.4 40.8c0 .9-.2 1.7-.6 2.2s-1 .8-1.7.8a2 2 0 01-1.5-.6v2.9H0v-8.4h1.5v.6c.4-.5.9-.7 1.5-.7.7 0 1.3.3 1.7.8.4.6.7 1.4.7 2.4zm-1.6-.1c0-.6-.1-1-.3-1.3-.2-.3-.5-.4-.9-.4-.5 0-.8.2-1 .6V42c.2.4.5.6 1 .6.8 0 1.2-.6 1.2-1.9M9.7 39.3h-.6c-.6 0-1 .2-1.2.6v4H6.4v-6h1.5v.7c.3-.5.8-.8 1.3-.8l.5.1v1.4zM10.1 40.7c0-.6.1-1.1.3-1.6.2-.5.5-.8 1-1.1.4-.3.9-.4 1.5-.4.8 0 1.5.2 2 .8.5.5.8 1.2.9 2v.4c0 .9-.2 1.7-.8 2.2s-1.2.8-2 .8-1.5-.3-2-.8-.9-1.3-.9-2.3zm1.6.1c0 .6.1 1 .3 1.3.2.3.5.5.9.5s.7-.2.9-.5.3-.8.3-1.4c0-.6-.1-1-.3-1.3-.2-.3-.5-.5-.9-.5s-.7.2-.9.5c-.2.3-.3.8-.3 1.4M16.5 40.7c0-.9.2-1.7.6-2.2.4-.6 1-.8 1.8-.8.6 0 1.1.2 1.5.7l.1-.6H22v5.8c0 .5-.1 1-.4 1.4s-.6.7-1 .9a3.3 3.3 0 01-2.8 0c-.4-.2-.7-.4-.9-.7l.7-1c.4.5.9.7 1.4.7.4 0 .8-.1 1-.3.2-.2.4-.5.4-1v-.3c-.4.4-.8.6-1.4.6-.7 0-1.3-.3-1.7-.8s-.8-1.4-.8-2.4zm1.6.1c0 .5.1 1 .3 1.3.2.3.5.5.9.5.5 0 .8-.2 1-.5v-2.5c-.2-.4-.5-.5-1-.5a1 1 0 00-.9.5c-.2.1-.3.6-.3 1.2M26.6 39.3H26c-.6 0-1 .2-1.2.6v4h-1.6v-6h1.5v.7c.3-.5.8-.8 1.3-.8l.5.1.1 1.4zM30.6 43.8l-.2-.5c-.4.4-.9.7-1.5.7s-1.1-.2-1.4-.5-.5-.9-.5-1.4c0-.6.2-1.1.7-1.5s1.1-.5 2-.5h.7v-.3l-.2-.7c-.1-.2-.4-.2-.7-.2l-.6.2-.2.5h-1.6c0-.3.1-.7.3-1 .2-.3.5-.5.9-.7.4-.2.8-.2 1.3-.2.7 0 1.3.2 1.7.6s.6.9.6 1.6v2.6l.2 1.3v.1l-1.5-.1zm-1.3-1.1c.2 0 .5 0 .6-.2l.4-.4v-1h-.6c-.8 0-1.2.3-1.3.8v.1l.2.5.7.2M34.8 37.8v.7c.4-.5 1-.8 1.7-.8.8 0 1.3.3 1.6.9a2 2 0 011.8-.9c.6 0 1.1.2 1.4.6s.5 1 .5 1.7v3.9h-1.6v-3.8l-.2-.8c-.1-.2-.4-.3-.7-.3-.5 0-.8.2-1 .7v4.2h-1.6v-3.8l-.2-.8c-.1-.3-.3-.3-.7-.3-.5 0-.8.2-1 .6v4.3h-1.6v-6l1.6-.1zM44.5 37.8v.7c.4-.5 1-.8 1.7-.8.8 0 1.3.3 1.6.9a2 2 0 011.8-.9c.6 0 1.1.2 1.4.6s.5 1 .5 1.7v3.9H50v-3.8l-.2-.8c-.1-.2-.4-.3-.7-.3-.5 0-.8.2-1 .7v4.2h-1.6v-3.8l-.2-.8c-.1-.3-.4-.3-.7-.3-.5 0-.8.2-1 .6v4.3H43v-6l1.5-.1zM55.6 43.9c-.9 0-1.6-.3-2.1-.8s-.8-1.3-.8-2.2v-.2c0-.6.1-1.2.4-1.6s.5-.8 1-1.1c.4-.3.9-.4 1.4-.4.8 0 1.5.3 1.9.8s.7 1.3.7 2.2v.7h-3.8c0 .4.2.7.5 1 .3.2.6.4 1 .4.6 0 1.1-.2 1.4-.7l.8.9c-.2.3-.6.6-1 .8l-1.4.2m-.2-5c-.3 0-.6.1-.8.3-.2.2-.3.5-.4.9h2.2V40c0-.4-.1-.6-.3-.8-.1-.2-.4-.3-.7-.3"/><path class="st0" style="width:.9;height:43.9" d="M68.9 0h.9v43.9h-.9z"/><path class="st0" d="M77.4 36.7h-1.1v-4.4h-1.1v-.8l2.2-.2zM82.8 14.3c-.7 0-1.3.1-1.8.3l-1.4.7.5-4.7h7.8V7.4H76.8l-1.2 11.2 3.5.2c.2-.5.5-.9.9-1.2.4-.3 1-.4 1.8-.4.9 0 1.6.3 2.1 1s.7 1.6.7 2.8-.2 2-.7 2.7c-.4.6-1.1.9-2.1.9-.8 0-1.5-.2-2-.7s-.8-1.1-.8-2l-3.8.2v.1c0 1.7.6 3 1.9 4 1.3 1 2.9 1.5 4.7 1.5 2.3 0 4-.6 5.1-1.9a6.9 6.9 0 001.7-4.8c0-2.1-.5-3.8-1.5-4.9s-2.5-1.8-4.3-1.8M80.7 35.9c.3 0 .5-.1.7-.3.2-.2.2-.5.2-.8v-.3c-.1.2-.3.3-.4.3l-.5.1c-.5 0-.9-.2-1.2-.5-.3-.3-.4-.8-.4-1.3s.2-1 .5-1.3c.3-.3.8-.5 1.3-.5s1 .2 1.3.5c.3.4.5.9.5 1.5v1.4c0 .6-.2 1.1-.5 1.5s-.8.5-1.4.5l-.6-.1-.5-.2.2-.8.5.1c0 .2.1.2.3.2m.1-1.7l.5-.1.3-.3v-.6l-.2-.8a.5.5 0 00-.5-.3c-.2 0-.4.1-.5.3l-.2.7.2.7c.1.3.2.4.4.4M87.1 32.2a6 6 0 00-1.2 1.9c-.2.6-.3 1.2-.3 1.9v.7h-1.1V36c0-.7.1-1.4.4-2l1.2-1.8h-2.7v-.8h3.7v.8zM91.3 36.7h-3.6V36l1.6-1.9.5-.7.2-.5c0-.2 0-.4-.2-.5l-.5-.2-.5.2a1 1 0 00-.2.6h-1c0-.5.1-.9.5-1.2.3-.3.8-.5 1.3-.5s1 .1 1.3.4c.3.3.5.6.5 1.1l-.2.9c-.1.3-.5.6-.9 1.1l-.9 1h2.2l-.1.9zM92.2 34h2.2v.8h-2.2zM98.9 36.7h-3.6V36l1.6-1.9.5-.7.2-.5c0-.2 0-.4-.2-.5l-.5-.2-.5.2a1 1 0 00-.2.6h-1c0-.5.1-.9.5-1.2.3-.3.8-.5 1.3-.5s1 .1 1.3.4c.3.3.5.6.5 1.1l-.2.9c-.1.3-.5.6-.9 1.1l-.9 1H99l-.1.9zM103.1 34.8c0 .6-.2 1.1-.5 1.5s-.8.5-1.3.5-1-.2-1.3-.5-.5-.8-.5-1.5v-1.5c0-.6.2-1.1.5-1.5.3-.4.8-.5 1.3-.5s1 .2 1.3.5c.3.4.5.8.5 1.5v1.5zm-1.1-1.6l-.2-.8c-.1-.2-.3-.3-.5-.3s-.4.1-.5.3l-.2.8v1.7l.2.8c.1.2.3.3.5.3s.4-.1.5-.3l.2-.8v-1.7zM107.4 36.7h-3.6V36l1.6-1.9.5-.7.2-.5c0-.2 0-.4-.2-.5l-.5-.2-.5.2a1 1 0 00-.2.6h-1c0-.5.1-.9.5-1.2.3-.3.8-.5 1.3-.5s1 .1 1.3.4c.3.3.5.6.5 1.1l-.2.9c-.1.3-.5.6-.9 1.1l-.9 1h2.2l-.1.9zM111.7 36.7h-3.6V36l1.6-1.9.5-.7.2-.5c0-.2 0-.4-.2-.5l-.5-.2-.5.2a1 1 0 00-.2.6h-1c0-.5.1-.9.5-1.2.3-.3.8-.5 1.3-.5s1 .1 1.3.4c.3.3.5.6.5 1.1l-.2.9c-.1.3-.5.6-.9 1.1l-.9 1h2.2l-.1.9z"/><path class="st1" d="M93.1 12.6zM94.2 12.7z"/><defs><circle id="SVGID_1_" cx="101.3" cy="17.5" r="10.4"/></defs><clipPath id="SVGID_2_"><use xlink:href="#SVGID_1_" overflow="visible"/></clipPath><circle cx="101.2" cy="17.6" r="10.5" clip-path="url(#SVGID_2_)" fill="#2aa4ca"/><defs><circle id="SVGID_3_" cx="101.3" cy="17.5" r="10.4"/></defs><clipPath id="SVGID_4_"><use xlink:href="#SVGID_3_" overflow="visible"/></clipPath><path d="M100.9 9.4l.2.2" clip-path="url(#SVGID_4_)" fill="#fff"/><defs><circle id="SVGID_5_" cx="101.3" cy="17.5" r="10.4"/></defs><clipPath id="SVGID_6_"><use xlink:href="#SVGID_5_" overflow="visible"/></clipPath><path d="M95.4 18.8z" clip-path="url(#SVGID_6_)" fill="#8cc6de"/><defs><circle id="SVGID_7_" cx="101.3" cy="17.5" r="10.4"/></defs><clipPath id="SVGID_8_"><use xlink:href="#SVGID_7_" overflow="visible"/></clipPath><path d="M95.1 19.6z" clip-path="url(#SVGID_8_)" fill="#8cc6de"/><defs><circle id="SVGID_9_" cx="101.3" cy="17.5" r="10.4"/></defs><clipPath id="SVGID_10_"><use xlink:href="#SVGID_9_" overflow="visible"/></clipPath><path d="M94.9 20.1z" clip-path="url(#SVGID_10_)" fill="#8cc6de"/><defs><circle id="SVGID_11_" cx="101.3" cy="17.5" r="10.4"/></defs><clipPath id="SVGID_12_"><use xlink:href="#SVGID_11_" overflow="visible"/></clipPath><path d="M94.8 19.2z" clip-path="url(#SVGID_12_)" fill="#8cc6de"/><defs><circle id="SVGID_13_" cx="101.3" cy="17.5" r="10.4"/></defs><clipPath id="SVGID_14_"><use xlink:href="#SVGID_13_" overflow="visible"/></clipPath><path d="M99.9 19c-.1 0-.1 0 0 0l.1-.1-.1.1z" clip-path="url(#SVGID_14_)" fill="#8cc6de"/><defs><circle id="SVGID_15_" cx="101.3" cy="17.5" r="10.4"/></defs><clipPath id="SVGID_16_"><use xlink:href="#SVGID_15_" overflow="visible"/></clipPath><path d="M101.3 20s.1.1 0 0c0 .1 0 .1 0 0z" clip-path="url(#SVGID_16_)" fill="#8cc6de"/><defs><circle id="SVGID_17_" cx="101.3" cy="17.5" r="10.4"/></defs><clipPath id="SVGID_18_"><use xlink:href="#SVGID_17_" overflow="visible"/></clipPath><path d="M112.3 14.9a.2.2 0 01-.2-.2c0-.2-.1-.5.2-.7.1-.1.1-.2 0-.2-.2 0-.2-.1-.2-.3 0-.2 0-.3-.3-.3-.2 0-.3.2-.3.3 0 .1 0 .3-.2.3s-.2-.1-.3-.2c0-.1-.1-.2-.2-.1s-.1 0-.2-.1-.2-.3-.3-.1h-.1l-.2-.4-.1.1c-.1.2-.4.3-.6.2-.1-.1-.2-.2-.2 0 0 .1-.1.2.1.3.1 0 .3.2.2.3l-.1.6-.1.1-.3.1c-.2 0-.2.2-.1.3v.2c-.2 0-.2.2-.3.3-.2.2 0 .4-.1.6v.3l.2-.2c.2-.2.3-.4.6-.2l-.4.5c-.1.1-.2.2-.1.4v.3c-.1.1-.1 0-.2-.1s-.2 0-.2.1v.2c0 .3-.1.4-.3.3-.2 0-.1-.2-.2-.3-.5.4-.8.4-1.3 0-.1-.1-.1 0-.2 0-.1.2-.3.2-.5.2h-.2c-.2 0-.2-.1-.2-.2 0-.2 0-.3.2-.3s.2 0 .2-.2c0-.3 0-.3.3-.3.2 0 .2-.1.2-.2l-.1-.2c-.1-.1-.2-.2-.1-.4v-.1h-.1-.1c-.2 0-.2 0-.1.2 0 .1.1.2 0 .4l-.3.1-.2.1c0 .2-.2.3-.4.4l-.1-.3-.1-.2-.1-.1-.1.1c-.1.2 0 .6.2.7l.1.3-.2.2c-.2 0-.4 0-.5-.2-.2-.3-.2-.6-.1-.8v-.2c-.2-.1-.2-.2 0-.3.1-.1.1-.2 0-.2-.1-.1-.1-.1 0-.2l.3-.3c.1 0 .1-.1 0-.1s-.1-.3-.2-.1c0 0-.1.1-.1 0l-.1-.1.1-.1c.2 0 .1-.1.1-.2v-.2l.3-1.1.2-.4s-.2-.1 0-.2h.3l-.2-.4-.1-.3-.3.2-.1.1-.3-.2.2-.1c.1 0 0-.1 0-.2l-.1-.1a.2.2 0 01-.2-.2v-.1c0-.1 0-.2-.2-.1s-.3 0-.4-.1c-.2.2-.3 0-.5-.1h-.3l-.2.1-.5-.1c0 .2-.3.4-.4.3h-.3v-.3l-.3-.2c-.2.1-.3-.1-.4-.2-.1-.1-.2-.2-.2 0l-.2.1.1.5-.1-.1-.2-.1c-.1 0-.1.2 0 .2v.1c.1.3 0 .3-.3.4l-.1-.3c-.1-.1-.1-.2-.3-.2h-.1c-.2-.3-.2-.1-.3 0v.5l-.3.6c0 .1-.1.1 0 .1.2.1.2.2.3.4v.1h-.1s-.1-.1-.1 0l-.2.2a.2.2 0 01-.2-.2l.1-.3-.3.1c0 .1-.1.2-.2 0l-.2-.1-.1.2-.2.4c-.1.2-.2.2-.4.1l-.3-.2-.2-.1c0-.1-.1-.2-.2-.1-.2 0-.3 0-.4-.3l-.2-.3c-.2-.1-.2-.3-.1-.5.1-.1 0-.1 0-.2l-.2-.1-.4-.1.2-.1-.2-.2-.2-.1V11c.1.1.2-.1.4 0l.4.1c.3 0 .3 0 .3-.3l.2-.7c.2 0 .2-.2.2-.3l-.2-.4c-.1 0-.3-.1-.4.1h-.1c-.2-.1-.3 0-.4.1l-.3.2v.1l.1-.1c0-.2-.1-.2-.2-.1s-.2.1-.1.2c.2.2-.1.4-.1.5v.2c-.1-.1-.2-.2-.2 0-.1.2-.2.1-.3-.1 0 .2 0 .3-.2.3l-.1.1v.3l.1.4-.1.2-.2.2-.1.1c-.2 0-.2.2-.2.4l-.2.6-.3.1-.2.1c0 .1.3.2.1.3l-.1.2-.2.2c-.1 0 0-.1 0-.2v-.1c.1-.5.1-1 .4-1.4l.4-.7v-.3c-.1-.1-.1-.2.1-.2h.3c.2 0 .2 0 .2-.2l-.2-.5c-.4.1-.7.5-.7.8 0 .3-.2.5-.4.7-.2.1-.3.3-.2.5.1.1 0 .2 0 .4l-.2.1c-.1-.1-.1 0-.1 0l-.1.3-.1.3c-.2.1-.1.2 0 .4l.1.5-.3 2.1v.7l.3 1.8c0 .7.2 1.3.7 1.9.3.3.5.8.6 1.2l.5.8.7.8c.2.2.3.4.6.5l.2.2.2.3.3.1.1.1c.3 0 .3.3.6.3l.1.1c0 .1.1.1.2 0 0-.1.1-.1 0-.2l-.4-.4-.2-.4c-.2-.2-.2-.4-.2-.6v-.5l-.2-.4-.5-.5-.2-.3v-.1l-.1.1s0 .1-.1 0v-.2l-.1-.1c-.2 0-.2-.2-.2-.3 0-.2 0-.2-.2-.1l-.3-.1-.3-.2-.1-.1c.2-.2-.1-.5.2-.7l-.1-.2a.3.3 0 010-.4c.2-.3.2-.3-.1-.5-.1-.1-.2-.2 0-.3l.1-.2c0-.2.1-.3.2-.3h.4l.1-.1v-.3c-.1 0-.2-.1-.1-.2l.2-.1.3-.1c.1-.1.2 0 .2 0 .3.1.6.1.8 0l-.6-.1c-.1 0-.2 0-.1-.2 0-.1.1-.2.2-.1s.3 0 .4 0h.3l.2-.2h.1l.2-.2v-.3c0-.2.1-.2.2-.3l.1-.3.1-.1s-.1 0 0-.1c0-.3-.1-.5-.4-.4l-.2-.1c-.1-.1-.1-.2 0-.2.2-.1.2-.3.2-.5 0-.1 0-.4.2-.3h.4c.2 0 .2.1.2.2.1.1-.1.1-.1.1 0-.1 0-.2-.1-.1v.3c0 .1.1.2.2.1s.1-.1.2 0 .2 0 .4 0c0-.1.1-.3-.1-.3-.2-.1-.2-.2-.1-.4v.1c0 .2.1.1.2.1.2 0 .1-.1.1-.2 0-.2.1-.3.3-.2s.4 0 .4.2H98.7v.1c0 .1-.1.1 0 .2s.1-.1.1-.1h.2c.2.2.2 0 .2-.1v-.2c.2.3.3.3.4.2.2-.1.2 0 .2.1l-.1.3v.3c.1.1 0 .2-.1.2-.2 0-.4 0-.5-.2-.1.1-.2.2.1.2.2 0 .2.1.1.2s-.1.3 0 .4l.1-.1c0-.2.1-.3.2-.3.2 0 .1.2.1.3l.1.2h.4l.1-.3.2-.2.1.2c0 .2 0 .3.2.3H101.1l-.1-.5v-.3-.1l.4-.3c.1 0 .3-.1.2-.3 0-.2.2-.4.4-.4h.1c.1 0 .1-.2.2-.1l.2.3c.1.2-.1.2-.2.2-.2 0-.2.1-.1.2 0 .2.2.4.4.5l.2.2c.2.2.2.2 0 .3-.2.1-.2.4-.3.6l-.1-.1v.1l.1.1V16.8c0 .3.1.4.4.3.3 0 .5-.1.8 0 .1.1.2.1.2.3 0 .2 0 .4-.2.6.2-.1.3 0 .4.2.1.1.1.3 0 .4 0 .1-.2 0-.2.2v-.1-.1l-.1-.1-.1.2.1.2.1.4c0 .1-.1.2 0 .2l.2-.1v-.1c.1.1.5.3.6.2l.1-.1c0-.1-.1-.2.1-.2.1 0 .1-.1.2 0 .2.2.4 0 .5-.1l.3-.2v.2l-.2.4v.1c-.2.2-.3.3-.2.6l-.1.1-.1-.1c0-.2-.1-.2-.2-.2.1.1 0 .3 0 .4l.4.4s.2 0 .1.1v.3c.2 0 .2.2.2.2h.1c.2 0 .4-.2.5-.4l.2-.1.1.2v.3c0 .2 0 .3.2.3.1.1.2 0 .3-.1l.2-.2c.3.2.5-.1.5-.2.2-.3.5-.4.8-.5l.2-.2.2-.6.1-.1c.2 0 .2-.3.4-.4.2-.1.2-.3.3-.5l.2.1v-.2c0-.1.1-.3-.1-.2l-.2-.1.1-.2.1-.1c.1.2.2 0 .3.1.3.1.3-.1.3-.2s.1-.2 0-.2l-.1-.1.1-.1.1-.1.1-.5V17c.2 0 .2-.2.3-.3.1 0 .3-.1.1-.3v-.1l-.1-.2v-.3l.2-.3.2-.2.1-.1v-.1c-.2-.1-.1-.3-.1-.5l.1-.2.1.2.1.4.1.1.1-.1v-.3l.4.2.2-.3c-.2.4-.2.3-.3.3zm-17.1 1.9c0-.1.1-.1.2 0h-.2zm5.5-5.5c-.1 0-.1 0 0 0-.1-.1-.1-.2 0-.2 0 0 .1.1 0 .2zm10.5 3.5c-.1-.1-.2 0-.3.1 0 0-.1.1-.1 0v-.2c.1-.1.4-.2.5-.1l-.1.2c.1 0 0 0 0 0z" clip-path="url(#SVGID_18_)" fill="#63b6d2"/><defs><circle id="SVGID_19_" cx="101.3" cy="17.5" r="10.4"/></defs><clipPath id="SVGID_20_"><use xlink:href="#SVGID_19_" overflow="visible"/></clipPath><path d="M94.6 11.3s.1 0 0 0c.1 0 .1 0 0 0 .1 0 .1 0 0 0z" clip-path="url(#SVGID_20_)" fill="#63b6d2"/><g><defs><circle id="SVGID_21_" cx="101.3" cy="17.5" r="10.4"/></defs><clipPath id="SVGID_22_"><use xlink:href="#SVGID_21_" overflow="visible"/></clipPath><path d="M95.5 14.6s0 .1 0 0z" clip-path="url(#SVGID_22_)" fill="#63b6d2"/></g><g><defs><circle id="SVGID_23_" cx="101.3" cy="17.5" r="10.4"/></defs><clipPath id="SVGID_24_"><use xlink:href="#SVGID_23_" overflow="visible"/></clipPath><path d="M95.5 14.5z" clip-path="url(#SVGID_24_)" fill="#63b6d2"/></g><g><defs><circle id="SVGID_25_" cx="101.3" cy="17.5" r="10.4"/></defs><clipPath id="SVGID_26_"><use xlink:href="#SVGID_25_" overflow="visible"/></clipPath><path d="M103.5 25.2c-.1-.1 0-.2 0-.2h.1l-.1.2z" clip-path="url(#SVGID_26_)" fill="#63b6d2"/></g><g><defs><circle id="SVGID_27_" cx="101.3" cy="17.5" r="10.4"/></defs><clipPath id="SVGID_28_"><use xlink:href="#SVGID_27_" overflow="visible"/></clipPath><path d="M94.6 12.1c0 .1 0 .1 0 0-.1.1-.1.1 0 0-.1.1-.1 0 0 0z" clip-path="url(#SVGID_28_)" fill="#23a0ad"/></g><g><defs><circle id="SVGID_29_" cx="101.3" cy="17.5" r="10.4"/></defs><clipPath id="SVGID_30_"><use xlink:href="#SVGID_29_" overflow="visible"/></clipPath><path d="M94.4 13.4s.1 0 0 0c.1 0 .1.1 0 0 0 .1 0 .1 0 0z" clip-path="url(#SVGID_30_)" fill="#23a0ad"/></g><g><defs><circle id="SVGID_31_" cx="101.3" cy="17.5" r="10.4"/></defs><clipPath id="SVGID_32_"><use xlink:href="#SVGID_31_" overflow="visible"/></clipPath><path d="M95.2 18.8z" clip-path="url(#SVGID_32_)" fill="#8cc6de"/></g><g><defs><circle id="SVGID_33_" cx="101.3" cy="17.5" r="10.4"/></defs><clipPath id="SVGID_34_"><use xlink:href="#SVGID_33_" overflow="visible"/></clipPath><path d="M96.5 18c0-.1 0-.1 0 0z" clip-path="url(#SVGID_34_)" fill="#8cc6de"/></g><g><defs><circle id="SVGID_35_" cx="101.3" cy="17.5" r="10.4"/></defs><clipPath id="SVGID_36_"><use xlink:href="#SVGID_35_" overflow="visible"/></clipPath><path d="M94.8 19.5l.1.2s.1.1 0 .1c0 .1-.1 0-.2 0 0-.1-.1-.1-.2 0l.3-.3z" clip-path="url(#SVGID_36_)" fill="#8cc6de"/></g><g><defs><circle id="SVGID_37_" cx="101.3" cy="17.5" r="10.4"/></defs><clipPath id="SVGID_38_"><use xlink:href="#SVGID_37_" overflow="visible"/></clipPath><path d="M108.4 9.2c-.1 0-.1 0 0 0h-.4-.4c-.1.1 0 .1.1.2l.1.1h.1l-.1.1c-.2-.1-.4 0-.3.3.1.2.1.4-.1.6l-.3.1s-.1 0 0 .1l.2.1h.3l.1.3v.1l.1.1h.2-.3c-.2 0-.3.1-.4.3l-.2.2c-.1 0-.2-.1-.2-.3l-.1-.5-.2-.1c-.1.1-.1.1 0 .2l.1.1c-.2.1-.4.1-.3.3l-.2.1-.2-.2c-.1.2-.2.3-.4.2h-.1c-.2 0-.2-.1-.1-.2s0-.2-.1-.2h-.2l-.1.1-.2.1h-.1c-.1.2-.3.1-.5.2l-.8.2.7.2h.2c0 .1.4.1 0 .2l-.1.2.2.1h.2l-.1.2c-.1.1-.1 0-.2 0l-.6-.2-.3-.1c-.1-.1-.2 0-.2.1l-.1.1-.1-.1c-.1-.1 0-.2-.2-.2l-.1.2c0 .1-.1.2-.2.1v.1c0 .1.2.1.1.2s-.2-.1-.2-.1l-.2-.3-.4-.1-.5-.3c-.1-.1-.2-.2-.1-.4 0-.1 0-.2-.2-.2l-.3-.1h-.1v-.1l.1-.1h-.1l-.1-.1c0-.1 0 0 .1 0l.1-.1c.1-.1.2-.3.4-.3s.2-.5.2-.7v-.1c0-.2 0-.4-.2-.1h-.1l-.1-.2c0-.1.1-.1 0-.2-.1 0-.2-.2-.3-.1-.1.1-.4 0-.2.3-.3 0-.4.4-.7.4-.1 0-.2.1-.1.2 0 0 .1.1 0 .1h-.2l-.1-.1c.1-.2 0-.4.2-.5v-.1l-.2-.2c-.1-.1 0-.1 0-.2.1 0 .3-.2.4 0h.1l.1-.2c0-.1-.1 0-.1 0l-.4-.2c-.1-.1-.1 0-.1 0l-.1.1h-.1v-.1c.2-.1.3-.2 0-.4-.1 0-.1-.2 0-.2.1-.2 0-.1-.1-.2 0-.5.1-.8.3-1 .2-.3.6-.5.9-.7.1.1.3 0 .3-.1l.2-.1h.2c0-.1.1-.1.2 0l.1.1c.1-.1.2-.2.1-.3l.2-.1c.2-.1.3-.1.2.1l.2.2.5-.2c.1 0 .3-.3.3.1 0 0 0 .1.1 0 .2-.1.3.1.4.2.1 0 0 .1 0 .1l-.1.1h-.1c0 .1-.1.2 0 .2l.1.1s0 .1.1 0l.5-.1s.1-.1.2 0c.2.2.5.2.8.3.1.1.2.1.4 0h.1l1 .5.1.1c-.1.2 0 .2.1.3 0 0 .1.2 0 .2-.1.2 0 .2.1.3l.1.1c.1.1 0 .3.1.2.1-.1.3-.2.3-.4s0-.3.2-.1l.4.2.1-.1.2-.2c0 .2.2.3.1.5h.1l.1-.1v.1c-.2.5.1.6.2.7zm-2.4.6l.1.3c.1.1.2 0 .4 0v-.3c-.2-.2-.3 0-.5 0zm-2.6-2.2c0-.1-.1-.1-.2 0s0 .1.1.2l.1.1.1.1.2-.1c-.1-.3-.2-.2-.3-.3zm3.2 2.8v.1s.1.1.1 0c.1 0 0-.1 0-.1h-.1zm-1 1.2z" clip-path="url(#SVGID_38_)" fill="#8cc6de"/></g><g><defs><circle id="SVGID_39_" cx="101.3" cy="17.5" r="10.4"/></defs><clipPath id="SVGID_40_"><use xlink:href="#SVGID_39_" overflow="visible"/></clipPath><path d="M95.1 19.5z" clip-path="url(#SVGID_40_)" fill="#5abbd5"/></g><g><defs><circle id="SVGID_41_" cx="101.3" cy="17.5" r="10.4"/></defs><clipPath id="SVGID_42_"><use xlink:href="#SVGID_41_" overflow="visible"/></clipPath><path d="M109 23.5c.1-.2.1-.6.3-.7v-.1c0-.1.1-.3 0-.4l-.1-.1-.2.2h-.1v.1l-.2.1c-.2 0-.1-.3-.3-.3l-.1-.1v-.1h-.5l-.2.2v.1c0 .2-.2.3-.1.4l-.2.1-.7.4c-.1.1-.2.3-.5.2l-.2.1c-.1 0-.2.1-.2 0l-.1-.2v-.2l-.1-.1-.2.1-.5.3h-.1c0-.1 0-.2-.2-.2-.1 0-.1-.2 0-.2l-.1-.1c-.2 0-.3-.2-.4-.3v-.3c.1 0 .2 0 .2.2h.1l.1-.1c-.1-.2.1-.3.2-.5l.1-.3v-.1l-.2.2c-.2.1-.3.2-.5 0-.1-.1-.2 0-.2 0-.2 0-.1 0-.1.1l-.1.1c-.1 0-.5 0-.6-.2-.1 0 0 0 0 .1l-.2.1c-.1 0 0-.1 0-.1.1-.1 0-.2-.1-.3l-.1-.2.1-.1.1.1v.1l.2-.1v-.3c-.1-.1-.2-.2-.4-.1l.2-.4-.2-.2h-.7c-.3 0-.4 0-.4-.3l-.1-.2c0-.1.1-.1 0-.2l-.1-.2c0-.2.2-.3.1-.5l-.1-.2c.2-.1.2-.1 0-.3l-.2-.2c-.2-.1-.3-.2-.3-.4l.1-.1c.1 0 .2 0 .2-.2l-.2-.2-.2.1h-.1c-.2 0-.4.1-.4.3 0 .2-.1.2-.2.2l-.4.2v.5l-.1.1-.1.2H99l-.1-.2c0-.1.1-.2-.1-.2l-.2.2h-.1v-.3c.1-.1 0-.2-.1-.2-.2 0-.1-.1-.1-.2l.5.2c.1 0 .2 0 .1-.1s-.1-.2 0-.2l.1-.2c0-.1 0-.2-.2-.1-.1.1-.2 0-.4-.2-.1 0 0 .1 0 .1 0 .1 0 .2-.1.1h-.2l-.1.1c-.1 0 0-.1 0-.1v-.1h-.2-.1c0-.2-.2-.1-.4-.2-.1 0-.3 0-.3.2 0 0 .1.1 0 .1l-.2-.1v-.1c-.1.1-.1.2.1.3.2 0 .1.2.1.2h-.3c-.1-.1-.1 0-.2 0-.1.1-.1 0-.2-.1s-.1-.2 0-.2l.1.1c.1 0 .2 0 .1-.1l-.2-.2H96c-.2 0-.2.2-.2.2 0 .1 0 .3-.2.3-.1 0-.1.1 0 .2l.2.1.4.1h-.1l-.2.1h-.1-.1l-.1.1h-.2v-.1H95.1 95v.1l-.1.1h-.2l-.1-.1h-.4l-.2.2h-.2-.1-.1V19.1l.1.1H94h-.1H93.6l-.1.1-.1.1h-.1.1l.1.1.1.1h-.1l-.1-.1-.1-.1h-.1l.2.3h.7l.2-.1H94.6l.1.1h.6c-.3.1-.5.1-.8 0-.1 0-.2-.1-.2 0l-.3.1-.2.1.1.1c.1 0 0 .1 0 .2s0 0-.1 0h-.4c-.2 0-.2.1-.2.2v.2c-.2.1-.1.1 0 .2.2.1.2.1.1.3v.3s.1.1 0 .1c-.2.1 0 .3-.2.5l.1.1.3.1c.1.1.2.1.2 0l.2.1c0 .1 0 .2.2.2l.1.1v.2h.2c.1 0 .1 0 0 .1 0 .1 0 .2.2.2l.5.3.2.3v.4c0 .2 0 .3.2.4.1.1 0 .2.2.3l.3.3c.1.1 0 .1 0 .2-.1.1-.1 0-.2 0l-.1-.1-.5-.2-.1-.1-.2-.1.7.6c.1.1.1.2.3.1h.1l.8.4 1.3.4.4.1c.1 0 .2-.1.2.1.3.1.5.1.8 0h.4c.5.1 1.1.1 1.6 0l1-.1c.7 0 1.3-.2 1.9-.3.2 0 .4-.1.5-.3l.1-.1 1-.3.4-.3.3-.3c.3-.2.7-.2.9-.5l.2-.2.6-.5c.4.2.5 0 .6-.1zm-13.2-2.1l-.1.1c-.1.2-.3.2-.5.1 0 0-.1-.1-.1 0l.1.1.2.2-.1.1-.1-.1v-.1c0-.1-.1-.1-.2 0 0 0-.1.1-.2 0-.1 0 0-.1 0-.1 0-.2-.1-.3-.3-.3l-.1-.1c-.1-.1.1-.5.3-.5-.1 0-.2-.1-.1-.2.1 0 0-.2 0-.2l.1-.1.1.1.2.2c0 .1.1 0 .2 0h.2l.1-.1.1-.1.1.1v.3c0 .1-.1.2 0 .2l.1-.2c.2.3.2.4 0 .6m.3-1.2l-.4-.1c-.1 0-.1.1-.2 0l.2-.1c.2.1.3 0 .5-.1h.1v.1l-.2.2m.4 5.7l-.1-.2.1-.1.2.1-.2.2m.5-5.8l-.3.1-.1-.2v-.1l.3-.1.3.1.1.2H97m6.6 2.1v-.1c0-.1.1-.1 0-.2l-.1-.1h.1l.1.1v.2l-.1.1m.7 3.2c-.1-.1 0-.1 0-.2h.1l-.1.2" clip-path="url(#SVGID_42_)" fill="#81c2da"/></g><g><defs><circle id="SVGID_43_" cx="101.3" cy="17.5" r="10.4"/></defs><clipPath id="SVGID_44_"><use xlink:href="#SVGID_43_" overflow="visible"/></clipPath><path clip-path="url(#SVGID_44_)" fill="#5abbd5" d="M94.9 20z"/></g><g><defs><circle id="SVGID_45_" cx="101.3" cy="17.5" r="10.4"/></defs><clipPath id="SVGID_46_"><use xlink:href="#SVGID_45_" overflow="visible"/></clipPath><path clip-path="url(#SVGID_46_)" fill="#5abbd5" d="M94.8 19.1h.1-.1z"/></g><g><defs><circle id="SVGID_47_" cx="101.3" cy="17.5" r="10.4"/></defs><clipPath id="SVGID_48_"><use xlink:href="#SVGID_47_" overflow="visible"/></clipPath><path d="M103.4 20.2s-1 1.3-1.2 3.2c-.2 1.9.2 1.3-.2 2.2l-.1.2.9-.5c.7-.4 1.4-.3 2.9-1.5s1.8-3.7 1.8-3.9l-.3.5-.4.6-1.9 1.7a9 9 0 00-1.3 1.4 3 3 0 01-.9.8l.1-.2c0-.1.5-.6.7-1.2.2-.6.2-1 .2-1.4l-.3-1.9" clip-path="url(#SVGID_48_)" fill="#fff"/></g><g><defs><circle id="SVGID_49_" cx="101.3" cy="17.5" r="10.4"/></defs><clipPath id="SVGID_50_"><use xlink:href="#SVGID_49_" overflow="visible"/></clipPath><path d="M104.7 22.1v-.3c0-.1.1-.7-.2-1.3-.3-.5-.9-2-.9-3s.2-1.1.2-1.1l.4 1c.1.1 1 1.6 1 2.4l-.1 1.1.2-.2.5-1.3c.3-.6 1.5-2.1 1.8-3 0 0 .4 1.7-.7 3.2-1.1 1.5-1.2 1.2-1.6 1.9l-.6.6" clip-path="url(#SVGID_50_)" fill="#fff"/></g><g><defs><circle id="SVGID_51_" cx="101.3" cy="17.5" r="10.4"/></defs><clipPath id="SVGID_52_"><use xlink:href="#SVGID_51_" overflow="visible"/></clipPath><path d="M105.7 17.7c-.1 0 0-.6-.2-.8a9.5 9.5 0 01-2.2-3.5l1.2 1c.2.1.9.7 1.1 1.2l.2 1 .1-.6.1-1.7c.1-.5.4-1.5.3-1.9 0 0 .6.9.6 2.1 0 1.2-.6 2.2-.7 2.3l-.3.8-.2.1" clip-path="url(#SVGID_52_)" fill="#fff"/></g><g><defs><circle id="SVGID_53_" cx="101.3" cy="17.5" r="10.4"/></defs><clipPath id="SVGID_54_"><use xlink:href="#SVGID_53_" overflow="visible"/></clipPath><path d="M103.8 9.1s2.1 1.1 1.8 4.8c0 0 0 .2-.1 0a3 3 0 00-.8-.8 7.5 7.5 0 01-2.9-2.6l.3.1.9.5c.1 0 .8.2 1.2.7l.8 1.1s.1.1 0-.2c-.1-.3-.1-.5-.4-.8-.2-.3-.5-1-.5-1.4 0-.5-.1-1.2-.3-1.4" clip-path="url(#SVGID_54_)" fill="#fff"/></g><g><defs><circle id="SVGID_55_" cx="101.3" cy="17.5" r="10.4"/></defs><clipPath id="SVGID_56_"><use xlink:href="#SVGID_55_" overflow="visible"/></clipPath><path d="M103.4 10.4l-.2-.6c-.2-.3 0-.7-.7-1.6-.4-.5-1.6-.9-1.6-.9l.6.7.4.5.7.7.1.2-.2-.1s-.8-.5-1.3-.6l-1.7-.3s1.1.9 2.3 1.1 1.6.9 1.6.9" clip-path="url(#SVGID_56_)" fill="#fff"/></g><g><defs><circle id="SVGID_57_" cx="101.3" cy="17.5" r="10.4"/></defs><clipPath id="SVGID_58_"><use xlink:href="#SVGID_57_" overflow="visible"/></clipPath><path d="M102.2 26.4l-1.2.4-1.2.5-.7.2h-.5l.2-.2c.7-.4.7-.5 1.3-1.1.6-.6.8-1.7.8-1.9l.2-.8a6.7 6.7 0 00-2 2.2l-.4.7c-.3.8-.7 1.4-1.2 1.4l-.1.1.7-.1.8.1 1.6.2c2.6 0 4.5-2.1 4.8-2.5l.6-1.1c-.8 1.3-3.1 1.8-3.7 1.9" clip-path="url(#SVGID_58_)" fill="#fff"/></g></svg>