<svg viewBox="0 0 36 36" fill="none" xmlns="http://www.w3.org/2000/svg">
<g id="Adaptation Progress Icon">
<path id="Vector" d="M22.7136 8.82826C24.0414 10.5069 24.8355 12.6278 24.8355 14.9339C24.8355 20.3719 20.427 24.7794 14.99 24.7794C9.55299 24.7794 5.14453 20.3709 5.14453 14.9339C5.14453 9.49684 9.55299 5.08838 14.99 5.08838C16.035 5.08838 17.043 5.25089 17.9883 5.55329" stroke="#999999" stroke-width="1.4" stroke-miterlimit="10"/>
<path id="Vector_2" d="M21.7704 11.989C22.1623 12.8911 22.3804 13.8878 22.3804 14.9338C22.3804 19.0162 19.0704 22.3262 14.988 22.3262C10.9056 22.3262 7.5957 19.0162 7.5957 14.9338C7.5957 10.8514 10.9056 7.5415 14.988 7.5415C15.4026 7.5415 15.8088 7.57545 16.2038 7.64128" stroke="#999999" stroke-width="1.4" stroke-miterlimit="10"/>
<g id="Group">
<path id="Vector_3" d="M11.4922 21.166V14.3291" stroke="#999999" stroke-width="1.4" stroke-miterlimit="10"/>
<path id="Vector_4" d="M15.8027 22.1257V9.92065" stroke="#999999" stroke-width="1.4" stroke-miterlimit="10"/>
<path id="Vector_5" d="M20.1152 20.0531V5.51318" stroke="#999999" stroke-width="1.4" stroke-miterlimit="10"/>
<path id="Vector_6" d="M13.5628 16.6002L11.5026 14.3291L9.44336 16.6002" stroke="#999999" stroke-width="1.4" stroke-linejoin="round"/>
<path id="Vector_7" d="M17.8636 12.1928L15.8033 9.92065L13.7441 12.1928" stroke="#999999" stroke-width="1.4" stroke-linejoin="round"/>
<path id="Vector_8" d="M22.1741 7.7853L20.1149 5.51318L18.0547 7.7853" stroke="#999999" stroke-width="1.4" stroke-linejoin="round"/>
</g>
<path id="Vector_9" d="M30.3533 30.2986C29.5695 31.0824 28.291 31.0598 27.535 30.2482L22.3809 24.4697L24.5244 22.3262L30.3029 27.4803C31.1145 28.2363 31.1381 29.5138 30.3533 30.2986Z" stroke="#999999" stroke-width="1.4" stroke-miterlimit="10"/>
<path id="Vector_10" d="M23.5079 20.4042L20.459 23.4531L21.8634 24.8576L24.9123 21.8087L23.5079 20.4042Z" stroke="#999999" stroke-width="1.4" stroke-linejoin="round"/>
</g>
</svg>
