<svg width="36" height="36" viewBox="0 0 36 36" fill="none" xmlns="http://www.w3.org/2000/svg">
<g id="National Adaptation Plans - grey">
<g id="Group">
<path id="Vector" d="M26.5389 14.8181C26.5352 8.29117 21.2426 3.00098 14.7133 3.00098V6.98676C14.3301 6.71475 13.861 6.55517 13.3557 6.55517C12.0561 6.55517 11.002 7.60934 11.002 8.90892C11.002 10.2085 12.0561 11.2627 13.3557 11.2627C13.8622 11.2627 14.3301 11.1031 14.7133 10.8311V14.8169H18.6979C18.4295 14.4349 18.2711 13.9694 18.2711 13.4665C18.2711 12.1669 19.3253 11.1128 20.6249 11.1128C21.9245 11.1128 22.9786 12.1669 22.9786 13.4665C22.9786 13.9694 22.8203 14.4349 22.5519 14.8169H26.5365L26.5389 14.8181Z" stroke="#808080" stroke-width="1.5" stroke-linejoin="round"/>
<path id="Vector_2" d="M16.0718 18.3626C15.5653 18.3626 15.0975 18.5234 14.713 18.7942V10.8323C14.3298 11.1043 13.8607 11.2639 13.3554 11.2639C12.0558 11.2639 11.0017 10.2097 11.0017 8.91014C11.0017 7.61056 12.0558 6.55639 13.3554 6.55639C13.862 6.55639 14.3298 6.71597 14.713 6.98798V3.0022C8.18249 3.0022 2.88867 8.29602 2.88867 14.8266C2.88867 21.3571 8.18249 26.6509 14.713 26.6509V22.6385C15.0975 22.9105 15.5653 23.0701 16.0718 23.0701C17.3714 23.0701 18.4256 22.0159 18.4256 20.7164C18.4256 19.4168 17.3714 18.3626 16.0718 18.3626Z" stroke="#808080" stroke-width="1.5" stroke-linejoin="round"/>
<path id="Vector_3" d="M26.5391 14.8254C26.5391 14.8254 26.5391 14.8296 26.5391 14.8316C26.5391 14.8296 26.5391 14.8275 26.5391 14.8254Z" stroke="#808080" stroke-width="1.5" stroke-linejoin="round"/>
<path id="Vector_4" d="M26.5391 14.8181V14.8191V14.8181Z" stroke="#808080" stroke-width="1.5" stroke-linejoin="round"/>
<path id="Vector_5" d="M26.5391 14.8232C26.5391 14.8232 26.5391 14.8201 26.5391 14.8191C26.5391 14.8211 26.5391 14.8222 26.5391 14.8242V14.8232Z" stroke="#808080" stroke-width="1.5" stroke-linejoin="round"/>
<path id="Vector_6" d="M20.6254 11.1144C21.925 11.1144 22.9791 12.1686 22.9791 13.4681C22.9791 13.971 22.8208 14.4365 22.5524 14.8185H26.537C26.5345 10.4966 24.2134 6.71758 20.7511 4.65639C20.7366 4.65639 20.7233 4.65397 20.7088 4.65276C20.5214 4.63583 20.4017 4.72046 20.3594 4.89091C20.3171 5.06137 20.351 5.31766 20.4356 5.70935C20.5202 6.10103 21.011 7.54447 20.3014 8.30609C18.8205 9.8946 18.7733 11.7962 18.7733 11.7962C18.7733 11.7962 18.7709 11.8869 18.7637 12.0259C19.194 11.471 19.8674 11.1132 20.6242 11.1132L20.6254 11.1144Z" stroke="#808080" stroke-width="1.5" stroke-linejoin="round"/>
<path id="Vector_7" d="M4.4973 8.86805C4.4973 9.17874 4.54324 9.54867 4.66897 9.77957C4.89866 10.2015 5.4741 10.6367 5.51279 10.8664C5.55147 11.0961 5.87063 11.877 6.20308 12.0813C6.53553 12.2856 6.61169 12.5165 6.68906 12.8865C6.76522 13.2576 6.17769 13.7436 5.9214 14.3057C5.66511 14.8679 5.72918 15.0734 5.85733 15.725C5.98547 16.3766 7.2512 18.2951 7.32494 18.3846C7.39869 18.4741 7.41682 18.6663 7.41682 18.6663C7.41682 18.6663 7.23307 20.8737 7.18229 21.2316C7.13152 21.5894 7.52321 23.601 7.52321 23.601C8.19173 24.6238 8.83608 24.7773 8.83608 24.7773C8.83608 24.7773 9.10446 23.9093 9.0017 23.3859C8.89895 22.8612 11.0859 19.9961 11.8269 19.7398C12.568 19.4847 13.5146 17.7064 13.9498 17.0935C14.385 16.4794 13.9365 16.02 13.5666 15.8024C13.1954 15.5848 12.597 15.4747 12.429 15.3551C12.0083 15.0553 11.7036 13.8899 10.9335 13.2709C10.3835 12.8297 9.2592 12.1394 8.96423 11.9351C8.67046 11.7308 7.99226 11.5192 7.6985 12.0052C7.40473 12.4912 6.80874 12.1382 6.45332 11.4019C6.29012 11.0634 6.10032 10.407 6.52223 9.9597C6.94414 9.5124 8.54836 9.08324 8.84213 8.54044C9.55901 7.21547 11.0012 7.16591 12.2537 6.59046C13.656 5.94732 14.1094 6.55782 14.582 6.35352C15.0547 6.14921 14.6606 3.33608 14.5736 3C10.2735 3.04957 6.52585 5.39485 4.49609 8.86684L4.4973 8.86805Z" stroke="#808080" stroke-width="1.5" stroke-linejoin="round"/>
<path id="Vector_8" d="M15.053 5.66898C15.1243 5.85757 15.9004 5.99539 16.2135 5.98813C16.4819 5.98209 16.8736 5.3728 16.9933 5.20234C17.1129 5.03188 17.9676 4.63173 18.3001 4.55557C18.5008 4.50963 18.3219 3.56185 17.3717 3.29951C16.5834 3.11818 14.4957 2.75309 14.7532 3.49415C14.8003 3.63076 14.6758 3.60537 14.6758 4.02244C14.6758 4.43952 14.8112 5.03309 15.053 5.66898Z" stroke="#808080" stroke-width="1.5" stroke-linejoin="round"/>
</g>
<g id="Group_2">
<path id="Vector_9" d="M31.5181 27.1983C31.2183 27.7133 30.881 28.2041 30.5099 28.6671C29.8547 29.3949 28.6409 30.5929 27.9651 30.9399C27.9651 30.9399 27.6327 30.7864 27.9651 30.1468C28.2976 29.5073 29.1474 26.4875 29.3372 25.3716C29.5162 24.3163 29.5947 24.6318 29.492 24.2486C29.3892 23.8653 27.8805 22.6637 27.4707 22.6891C27.0621 22.7145 26.0732 22.382 25.4337 21.4789C24.7942 20.5759 25.3212 18.7855 25.3382 18.47C25.0287 18.8689 24.8449 19.3682 24.8449 19.911C24.8449 20.4139 25.0033 20.8793 25.2717 21.2613H21.2871V25.2375C21.6715 24.9654 22.1394 24.8059 22.6459 24.8059C23.9455 24.8059 24.9997 25.86 24.9997 27.1596C24.9997 28.4592 23.9455 29.5134 22.6459 29.5134C22.1394 29.5134 21.6715 29.3526 21.2871 29.0818V33.0942C27.3607 33.0942 32.3644 28.5148 33.0353 22.6202C32.9313 23.5305 32.7246 24.4081 32.426 25.2435C32.0924 26.0607 31.7841 26.7051 31.5181 27.1983Z" stroke="#808080" stroke-width="1.5" stroke-linejoin="round"/>
<path id="Vector_10" d="M33.0593 22.3708C33.0629 22.3309 33.0665 22.2922 33.0702 22.2523C33.0738 22.2027 33.0774 22.1532 33.081 22.1036C33.0847 22.0564 33.0871 22.0093 33.0895 21.9621C33.0919 21.9174 33.0943 21.8727 33.0968 21.828C33.0992 21.7711 33.1016 21.7155 33.1028 21.6587C33.104 21.6224 33.1052 21.585 33.1064 21.5487C33.1088 21.458 33.1101 21.3661 33.1101 21.2743C33.1101 21.2719 33.1101 21.2694 33.1101 21.2658C33.1101 21.2634 33.1101 21.2622 33.1101 21.2598H29.1255C29.3939 20.8778 29.5522 20.4123 29.5522 19.9094C29.5522 18.6098 28.4981 17.5557 27.1985 17.5557C26.4417 17.5557 25.7683 17.9135 25.338 18.4684C25.321 18.7839 24.3636 20.0533 25.4335 21.4774C26.0984 22.3623 27.0619 22.7129 27.4705 22.6875C27.8803 22.6621 29.389 23.8638 29.4918 24.247C29.5945 24.6302 29.25 26.5463 28.7278 27.8568C28.486 28.4625 28.2974 29.507 27.9649 30.1465C27.6325 30.786 27.9649 30.9395 27.9649 30.9395C28.6395 30.5913 29.8545 29.3933 30.5097 28.6668C30.8808 28.2037 31.2181 27.7141 31.5179 27.1979C31.7839 26.7047 32.0921 26.0603 32.4258 25.2431C32.7244 24.4078 32.9311 23.5289 33.0351 22.6198C33.0387 22.592 33.0411 22.5642 33.0448 22.5364C33.0508 22.482 33.0556 22.4264 33.0605 22.3708H33.0593Z" stroke="#808080" stroke-width="1.5" stroke-linejoin="round"/>
</g>
</g>
</svg>
