<svg width="36" height="36" viewBox="0 0 36 36" fill="none" xmlns="http://www.w3.org/2000/svg">
<g id="Adaptation projects - grey">
<path id="Vector" d="M24.8214 25.5C24.8214 25.2763 24.8035 25.056 24.7689 24.8416L26 23.8034L24.7546 21.6966L23.2169 22.2198C22.8686 21.9448 22.4761 21.7211 22.0502 21.5614L21.7448 20H19.2552L18.9498 21.5614C18.5251 21.7211 18.1314 21.9448 17.7831 22.2198L16.2454 21.6966L15 23.8034L16.2311 24.8416C16.1965 25.056 16.1786 25.2763 16.1786 25.5C16.1786 25.7237 16.1965 25.944 16.2311 26.1584L15 27.1966L16.2454 29.3034L17.7831 28.7802C18.1314 29.0552 18.5239 29.2789 18.9498 29.4386L19.2552 31H21.7448L22.0502 29.4386C22.4749 29.2789 22.8686 29.0552 23.2169 28.7802L24.7546 29.3034L26 27.1966L24.7689 26.1584C24.8035 25.944 24.8214 25.7237 24.8214 25.5Z" stroke="#808080" stroke-width="1.5" stroke-linejoin="round"/>
<path id="Vector_2" d="M31.3425 9.45178C31.182 9.24595 31.0092 9.05633 30.8253 8.88293L31.1783 7.05911L28.5652 6L27.5716 7.56559C27.0655 7.5581 26.557 7.63046 26.0645 7.78265L24.6771 6.56137L22.4627 8.31907L23.307 9.97073C23.0428 10.4173 22.854 10.9001 22.7404 11.3991L21 12.0029L21.3987 14.8197L23.2354 14.9058C23.3576 15.1278 23.4995 15.3424 23.6588 15.5482C23.8192 15.7541 23.992 15.9437 24.1759 16.1171L23.8229 17.9409L26.436 19L27.4284 17.4344C27.9345 17.4419 28.443 17.3695 28.9355 17.2173L30.3229 18.4386L32.5373 16.6809L31.693 15.0293C31.9572 14.5827 32.146 14.0999 32.2596 13.6009L34 12.9971L33.6013 10.1803L31.7646 10.0942C31.6424 9.87218 31.5005 9.65761 31.3412 9.45178H31.3425Z" stroke="#808080" stroke-width="1.5" stroke-linejoin="round"/>
<path id="Vector_3" d="M16.3898 13C16.3898 12.6433 16.3575 12.2951 16.299 11.9542L18 10.5214L16.1996 7.47862L14.0771 8.19927C13.5275 7.75523 12.9021 7.39854 12.2207 7.15226L11.8004 5H8.19956L7.7793 7.15226C7.09792 7.39854 6.47125 7.75523 5.92291 8.19927L3.80044 7.47862L2 10.5214L3.70096 11.9542C3.64252 12.2939 3.6102 12.6433 3.6102 13C3.6102 13.3567 3.64252 13.7049 3.70096 14.0458L2 15.4786L3.80044 18.5214L5.92291 17.8007C6.47249 18.2448 7.09792 18.6015 7.7793 18.8477L8.19956 21H11.8004L12.2207 18.8477C12.9021 18.6015 13.5288 18.2448 14.0771 17.8007L16.1996 18.5214L18 15.4786L16.299 14.0458C16.3575 13.7061 16.3898 13.3567 16.3898 13Z" stroke="#808080" stroke-width="1.5" stroke-linejoin="round"/>
<path id="Vector_4" d="M20.5 23L18 26.5H23L20.5 23Z" stroke="#808080" stroke-width="1.2" stroke-linejoin="round"/>
<path id="Vector_5" d="M27.999 9.99789L25.1289 12.1709L27.3019 15.041L30.172 12.868L27.999 9.99789Z" stroke="#808080" stroke-width="1.5" stroke-linejoin="round"/>
<path id="Vector_6" d="M10 16C11.6569 16 13 14.6569 13 13C13 11.3431 11.6569 10 10 10C8.34314 10 7 11.3431 7 13C7 14.6569 8.34314 16 10 16Z" stroke="#808080" stroke-width="1.5" stroke-linejoin="round"/>
</g>
</svg>
