<svg xmlns="http://www.w3.org/2000/svg" width="36" height="36" viewBox="0 0 36 36" fill="none">
  <mask id="mask0_826_274" style="mask-type:luminance" maskUnits="userSpaceOnUse" x="2" y="4" width="18" height="24">
    <path d="M13.9321 21.1663C13.9321 17.3713 16.1442 14.0943 19.3465 12.557V4.60449H2.14648V27.4713H16.3114C14.8315 25.7903 13.9321 23.583 13.9321 21.1651V21.1663Z" fill="white"/>
  </mask>
  <g mask="url(#mask0_826_274)">
    <path d="M10.7461 23.6876C6.81279 23.6876 3.57703 22.4098 3.18048 20.7695H3.13867V23.3478C3.13867 25.1472 6.54404 26.6056 10.7461 26.6056C14.9482 26.6056 18.3535 25.1472 18.3535 23.3478V20.7695H18.3117C17.9152 22.4086 14.6794 23.6876 10.7461 23.6876Z" stroke="#808080" stroke-width="1.5" stroke-miterlimit="10"/>
    <path d="M10.7461 20.7713C6.81279 20.7713 3.57703 19.4935 3.18048 17.8533H3.13867V20.4315C3.13867 20.5464 3.15301 20.66 3.18048 20.7713C3.57703 22.4104 6.81279 23.6893 10.7461 23.6893C14.6794 23.6893 17.9152 22.4116 18.3117 20.7713C18.3392 20.66 18.3535 20.5464 18.3535 20.4315V17.8533H18.3117C17.9152 19.4923 14.6794 20.7713 10.7461 20.7713Z" stroke="#808080" stroke-width="1.5" stroke-miterlimit="10"/>
    <path d="M10.7461 17.8528C6.81279 17.8528 3.57703 16.5751 3.18048 14.9348H3.13867V17.5131C3.13867 17.6279 3.15301 17.7416 3.18048 17.8528C3.57703 19.4919 6.81279 20.7709 10.7461 20.7709C14.6794 20.7709 17.9152 19.4931 18.3117 17.8528C18.3392 17.7416 18.3535 17.6279 18.3535 17.5131V14.9348H18.3117C17.9152 16.5739 14.6794 17.8528 10.7461 17.8528Z" stroke="#808080" stroke-width="1.5" stroke-miterlimit="10"/>
    <path d="M10.7461 14.9351C6.81279 14.9351 3.57703 13.6574 3.18048 12.0171H3.13867V14.5953C3.13867 14.7102 3.15301 14.8238 3.18048 14.9351C3.57703 16.5742 6.81279 17.8531 10.7461 17.8531C14.6794 17.8531 17.9152 16.5754 18.3117 14.9351C18.3392 14.8238 18.3535 14.7102 18.3535 14.5953V12.0171H18.3117C17.9152 13.6562 14.6794 14.9351 10.7461 14.9351Z" stroke="#808080" stroke-width="1.5" stroke-miterlimit="10"/>
    <path d="M10.7461 12.0176C6.81279 12.0176 3.57703 10.7399 3.18048 9.09961H3.13867V11.6779C3.13867 11.7927 3.15301 11.9064 3.18048 12.0176C3.57703 13.6567 6.81279 14.9356 10.7461 14.9356C14.6794 14.9356 17.9152 13.6579 18.3117 12.0176C18.3392 11.9064 18.3535 11.7927 18.3535 11.6779V9.09961H18.3117C17.9152 10.7387 14.6794 12.0176 10.7461 12.0176Z" stroke="#808080" stroke-width="1.5" stroke-miterlimit="10"/>
    <path d="M10.7461 5.50244C6.54523 5.50244 3.13867 6.96085 3.13867 8.76024C3.13867 8.87509 3.15301 8.98875 3.18048 9.10002C3.57703 10.7391 6.81279 12.018 10.7461 12.018C14.6794 12.018 17.9152 10.7403 18.3117 9.10002C18.3392 8.98875 18.3535 8.87509 18.3535 8.76024C18.3535 6.96085 14.9482 5.50244 10.7461 5.50244Z" stroke="#808080" stroke-width="1.5" stroke-miterlimit="10"/>
  </g>
  <path d="M26.2622 20.8927C25.7678 20.5223 24.9833 20.2362 23.9127 20.0327C23.5331 19.958 23.243 19.8881 23.0387 19.8229C22.8343 19.7593 22.6941 19.6846 22.6162 19.602C22.5384 19.5193 22.4975 19.4287 22.4975 19.3302C22.4975 19.1712 22.5851 19.0456 22.7603 18.9502C22.9355 18.8565 23.1671 18.8088 23.4533 18.8088C23.7667 18.8088 24.0859 18.8565 24.411 18.9502C24.7341 19.044 25.0067 19.2125 25.2286 19.4541L26.9338 18.4575C26.6204 18.0505 26.1844 17.7183 25.6296 17.4608C25.3201 17.3178 24.9716 17.216 24.5901 17.1524V16H22.552V17.1715C22.2853 17.2224 22.0362 17.2939 21.8103 17.3877C21.3062 17.5959 20.9207 17.8773 20.6521 18.2318C20.3835 18.5862 20.2492 18.9836 20.2492 19.4208C20.2492 19.8054 20.3368 20.1488 20.512 20.4508C20.6872 20.7528 20.9636 21.0056 21.3373 21.209C21.7111 21.4125 22.1997 21.5714 22.8012 21.6843C23.3092 21.767 23.6947 21.8576 23.9594 21.9561C24.2222 22.0547 24.4071 22.1548 24.5142 22.2566C24.6193 22.3583 24.6738 22.4664 24.6738 22.5792C24.6738 22.7382 24.5765 22.859 24.3818 22.9417C24.1872 23.0243 23.9516 23.0656 23.6752 23.0656C23.3598 23.0656 23.0328 23.0116 22.6902 22.9019C22.3476 22.7922 22.0206 22.549 21.7052 22.1723L20 23.0784C20.3504 23.6665 20.8293 24.0893 21.4347 24.3468C21.7753 24.4915 22.1471 24.5932 22.5501 24.6568V26H24.5882V24.6425C24.8587 24.5932 25.1137 24.5233 25.3512 24.4327C25.869 24.2324 26.2739 23.959 26.564 23.6125C26.8559 23.2659 27 22.8685 27 22.4235C27 21.7749 26.7528 21.2647 26.2583 20.8943L26.2622 20.8927Z" fill="#808080" class="fill-black" />
  <path d="M25.502 27.9786C29.4422 27.0471 31.8824 23.0927 30.9524 19.1461C30.0225 15.1994 26.0745 12.7552 22.1343 13.6867C18.1941 14.6182 15.7539 18.5726 16.6838 22.5193C17.6138 26.4659 21.5618 28.9101 25.502 27.9786Z" stroke="#808080" stroke-width="1.5" stroke-miterlimit="10"/>
</svg>