<svg xmlns="http://www.w3.org/2000/svg" viewBox="0 0 32 32"><defs><style>.cls-1,.cls-2{fill:none;stroke:gray;stroke-miterlimit:10;stroke-width:1.4px;}.cls-2{stroke-dasharray:1.77 1.77;}</style></defs><g id="Layer_1" data-name="Layer 1"><polyline class="cls-1" points="28.3 6 16.2 18.8 10 12.6"/></g><g id="icon"><path class="cls-1" d="M26.1,12.6a9.7,9.7,0,0,1,.6,3.4A10.5,10.5,0,0,1,16.2,26.5a10.3,10.3,0,0,1-7.4-3"/><path class="cls-1" d="M16.2,5.5a10.5,10.5,0,0,1,6.5,2.3"/><path class="cls-1" d="M8.8,23.5l-.6-.7"/><path class="cls-2" d="M7.2,21.4A10,10,0,0,1,5.7,16,10.3,10.3,0,0,1,14.4,5.7"/><path class="cls-1" d="M15.3,5.5h.9"/></g></svg>