<svg xmlns="http://www.w3.org/2000/svg" viewBox="0 0 32 32"><defs><style>.cls-1,.cls-2{fill:none;stroke:gray;stroke-linejoin:round;stroke-width:1.4px;}.cls-2{stroke-dasharray:4.76 4.76;}</style></defs><g id="Layer_1" data-name="Layer 1"><polyline class="cls-1" points="10.8 27.5 10.8 24.4 6.7 20.2"/><polyline class="cls-1" points="7.4 18.1 8.7 18.1 13.7 13.2"/><polyline class="cls-1" points="19.2 14 18.1 15 18.1 17.3 16.2 19.3 16.2 20.9 18.1 20.9 19.4 19.6 21 19.6 22.6 21.2 22.6 23.3 24.4 23.3 25.6 24.5"/><polyline class="cls-1" points="14.4 27.5 14.4 24.5 16.7 22.3 20.8 22.3 22.2 23.7 23.7 23.7 25.4 25.4"/></g><g id="icon"><path class="cls-1" d="M7.1,26.5a10.1,10.1,0,0,1-.8-3.9,9.8,9.8,0,0,1,19.5,0,9.2,9.2,0,0,1-.8,3.8"/><path class="cls-1" d="M5.5,11.2A12.8,12.8,0,0,1,9.2,8.3"/><path class="cls-2" d="M13.6,6.7,16,6.5a15,15,0,0,1,4.7.8"/><path class="cls-1" d="M22.8,8.2a17.6,17.6,0,0,1,3.7,2.9"/></g></svg>