<svg xmlns="http://www.w3.org/2000/svg" viewBox="0 0 32 32"><defs><style>.cls-1{fill:none;stroke:gray;stroke-miterlimit:10;stroke-width:1.4px;}</style></defs><g id="icon"><line class="cls-1" x1="11.1" y1="26.5" x2="28" y2="26.5"/><line class="cls-1" x1="4.2" y1="26.3" x2="8.5" y2="26.3"/><path class="cls-1" d="M9.2,12.9h2.7a0,0,0,0,1,0,0V15a4.5,4.5,0,0,1-4.5,4.5H5.3a0,0,0,0,1,0,0V16.8a3.9,3.9,0,0,1,3.9-3.9Z"/><path class="cls-1" d="M11.8,12.9s1.7-.2,3.1-4.4c.7-2.1,2.5-2,2.5,0V26.3"/><path class="cls-1" d="M20.4,17h1a4.4,4.4,0,0,1,4.4,4.4v1a0,0,0,0,1,0,0h-2A3.5,3.5,0,0,1,20.4,19V17A0,0,0,0,1,20.4,17Z"/><path class="cls-1" d="M20.4,17V13.8c0-4-3-2.7-3-1.4"/></g></svg>