<svg xmlns="http://www.w3.org/2000/svg" viewBox="0 0 32 32"><defs><style>.cls-1{fill:none;stroke:gray;stroke-linecap:round;stroke-linejoin:round;stroke-width:1.4px;}</style></defs><g id="icon"><path class="cls-1" d="M23.2,20.9h0a3,3,0,0,0-3-3,2.8,2.8,0,0,0-1.6.5,4.6,4.6,0,0,0-4.5-3.5,4.5,4.5,0,0,0-4.5,4.5,4.1,4.1,0,0,0,.3,1.6,3,3,0,0,0-2.6,3,3.1,3.1,0,0,0,3,3H22.5a3.1,3.1,0,0,0,3-3A3.2,3.2,0,0,0,23.2,20.9Z"/><circle class="cls-1" cx="17.2" cy="9.5" r="0.4"/><circle class="cls-1" cx="24.9" cy="14.8" r="1.6"/><circle class="cls-1" cx="7.1" cy="12.4" r="1.6"/><circle class="cls-1" cx="11.2" cy="6.7" r="0.4"/><circle class="cls-1" cx="22.1" cy="5.5" r="0.4"/></g></svg>