<svg id="Layer_1" data-name="Layer 1" xmlns="http://www.w3.org/2000/svg" viewBox="0 0 32 32"><path d="M9.1,27.2l1.5-1.5a2.4,2.4,0,0,1,2.2-1h3.9c3.6,0,6.6-2.9,8-4.4,2.8-3.1.1-4.8-1.3-3.4l-2,2.1c-1.1,1.1-1.7,1.1-4,1.1" fill="none" stroke="gray" stroke-miterlimit="10" stroke-width="1.4"/><path d="M4.4,22.5l3.5-3.6c1.9-1.8,2.8-1.9,3.9-2l4.5.2c3.8,0,3.2,3,1.1,3H14.1l-1.4.2" fill="none" stroke="gray" stroke-miterlimit="10" stroke-width="1.4"/><path d="M17.9,8.1a1.8,1.8,0,0,0-2-2,1.6,1.6,0,0,0-1.7,1.7c0,2.2,3.7,1.2,3.7,3.5A1.7,1.7,0,0,1,16,13.1,2,2,0,0,1,14,11" fill="none" stroke="gray" stroke-miterlimit="10" stroke-width="1.4"/><line x1="15.9" y1="6.1" x2="15.9" y2="4" fill="none" stroke="gray" stroke-miterlimit="10" stroke-width="1.4"/><line x1="15.9" y1="15.2" x2="15.9" y2="13.1" fill="none" stroke="gray" stroke-miterlimit="10" stroke-width="1.4"/></svg>