<svg xmlns="http://www.w3.org/2000/svg" viewBox="0 0 32 32"><g id="Layer_1" data-name="Layer 1"><path d="M22,26.5V24.9a1.7,1.7,0,0,1,.6-1.6l2-2c1.9-1.9,2-4.9,1.9-6.5s-2.4-2.5-2.4-1v2.1c0,1.1-.3,1.4-1.5,2.6" fill="none" stroke="gray" stroke-miterlimit="10" stroke-width="1.4"/><path d="M17.1,26.5V22.8a3.8,3.8,0,0,1,1-3.1c.8-.9,2-1.8,2.4-2.2,1.9-1.9,3.2-.1,2.1,1l-1.7,1.7a2.4,2.4,0,0,0-.6.9" fill="none" stroke="gray" stroke-miterlimit="10" stroke-width="1.4"/><path d="M10,26.5V24.9a1.7,1.7,0,0,0-.6-1.6l-2-2c-1.9-1.9-2-4.9-1.9-6.5s2.4-2.5,2.4-1v2.1c0,1.1.3,1.4,1.5,2.6" fill="none" stroke="gray" stroke-miterlimit="10" stroke-width="1.4"/><path d="M14.9,26.5V22.8a3.8,3.8,0,0,0-1-3.1c-.8-.9-2-1.8-2.4-2.2-1.9-1.9-3.2-.1-2.1,1l1.7,1.7a2.4,2.4,0,0,1,.6.9" fill="none" stroke="gray" stroke-miterlimit="10" stroke-width="1.4"/><polyline points="7.4 11 8.9 10.6 13.7 5.8" fill="none" stroke="gray" stroke-linejoin="round" stroke-width="1.4"/><polyline points="19.1 6.5 18.1 7.5 18.1 9.8 16.2 11.7 16.2 13.3 18.1 13.3 19.4 12 20.9 12 22.5 13.5" fill="none" stroke="gray" stroke-linejoin="round" stroke-width="1.4"/><polyline points="14.5 16.8 16.6 14.6 20.7 14.6" fill="none" stroke="gray" stroke-linejoin="round" stroke-width="1.4"/></g><g id="icon"><path d="M7.4,11a9.5,9.5,0,0,1,17.3.1" fill="none" stroke="gray" stroke-linejoin="round" stroke-width="1.4"/></g></svg>