<svg id="Layer_1" data-name="Layer 1" xmlns="http://www.w3.org/2000/svg" viewBox="0 0 32 32"><defs><style>.cls-1{fill:none;stroke:gray;stroke-linejoin:round;stroke-width:1.4px;}</style></defs><path class="cls-1" d="M27.4,15.6c-2.9,0-2.9-2.3-2.9-2.3a2.9,2.9,0,0,1-2.8,2.3c-2.1,0-2.9-2.3-2.9-2.3a2.9,2.9,0,0,1-5.6,0s-.8,2.3-2.9,2.3a2.8,2.8,0,0,1-2.8-2.3s0,2.3-2.9,2.3"/><path class="cls-1" d="M27.4,21.1c-2.9,0-2.9-2.2-2.9-2.2a2.9,2.9,0,0,1-2.8,2.2,3.4,3.4,0,0,1-2.9-2.2A2.8,2.8,0,0,1,16,21.1a2.8,2.8,0,0,1-2.8-2.2,3.4,3.4,0,0,1-2.9,2.2,2.8,2.8,0,0,1-2.8-2.2s0,2.2-2.9,2.2"/><path class="cls-1" d="M27.4,26.7c-2.9,0-2.9-2.3-2.9-2.3a2.9,2.9,0,0,1-2.8,2.3c-2.1,0-2.9-2.3-2.9-2.3a2.9,2.9,0,0,1-5.6,0s-.8,2.3-2.9,2.3a2.8,2.8,0,0,1-2.8-2.3s0,2.3-2.9,2.3"/></svg>