<svg xmlns="http://www.w3.org/2000/svg" viewBox="0 0 32 32"><g id="icon"><circle cx="10.2" cy="15.4" r="2.7" fill="none" stroke="gray" stroke-miterlimit="10" stroke-width="1.4"/><path d="M5.5,26.7c0-2.6.4-6.2,4.7-6.2s4.6,3.6,4.6,6.2" fill="none" stroke="gray" stroke-miterlimit="10" stroke-width="1.4"/><path d="M10.2,10.4V6.9a1.6,1.6,0,0,1,1.5-1.6H24.9a1.6,1.6,0,0,1,1.6,1.6V17.4a1.6,1.6,0,0,1-1.6,1.5H18.5L16,21.7" fill="none" stroke="gray" stroke-miterlimit="10" stroke-width="1.4"/><path d="M15.9,10.7V9.9a1.5,1.5,0,0,1,1.5-1.5h1.9a1.5,1.5,0,0,1,1.5,1.5V11a1.5,1.5,0,0,1-1.5,1.5h-.8v1.6" fill="none" stroke="gray" stroke-miterlimit="10" stroke-width="1.4"/><line x1="18.5" y1="14.8" x2="18.5" y2="16.5" fill="none" stroke="gray" stroke-miterlimit="10" stroke-width="1.4"/><line x1="18.5" y1="18.9" x2="14.8" y2="18.9" fill="none" stroke="gray" stroke-miterlimit="10" stroke-width="1.4"/></g></svg>